
<svg width="405" height="30" viewBox="0 0 405 30" fill="none" xmlns="http://www.w3.org/2000/svg">
    <rect y="14" width="405" height="7" fill="#D9D9D9"/>
    <ellipse cx="308.5" cy="15" rx="27.5" ry="15" fill="#8C07DD"/>
    <path d="M290.175 23.125V8.57955H295.629C296.747 8.57955 297.684 8.78788 298.442 9.20455C299.204 9.62121 299.78 10.1941 300.168 10.9233C300.561 11.6477 300.757 12.4716 300.757 13.3949C300.757 14.3277 300.561 15.1562 300.168 15.8807C299.775 16.6051 299.195 17.1757 298.428 17.5923C297.661 18.0043 296.716 18.2102 295.594 18.2102H291.979V16.044H295.239C295.892 16.044 296.427 15.9304 296.844 15.7031C297.261 15.4759 297.568 15.1634 297.767 14.7656C297.971 14.3679 298.073 13.911 298.073 13.3949C298.073 12.8788 297.971 12.4242 297.767 12.0312C297.568 11.6383 297.258 11.3329 296.837 11.1151C296.42 10.8925 295.883 10.7812 295.225 10.7812H292.81V23.125H290.175ZM303.046 23.125V8.57955H308.501C309.618 8.57955 310.555 8.77367 311.313 9.16193C312.075 9.55019 312.651 10.0947 313.039 10.7955C313.432 11.4915 313.628 12.3035 313.628 13.2315C313.628 14.1643 313.43 14.974 313.032 15.6605C312.639 16.3423 312.059 16.8703 311.292 17.2443C310.525 17.6136 309.582 17.7983 308.465 17.7983H304.58V15.6108H308.11C308.763 15.6108 309.298 15.5208 309.715 15.3409C310.132 15.1562 310.439 14.8887 310.638 14.5384C310.842 14.1832 310.944 13.7476 310.944 13.2315C310.944 12.7154 310.842 12.2751 310.638 11.9105C310.435 11.5412 310.125 11.2618 309.708 11.0724C309.291 10.8783 308.754 10.7812 308.096 10.7812H305.681V23.125H303.046ZM310.56 16.5341L314.161 23.125H311.221L307.684 16.5341H310.56ZM314.493 8.57955H317.469L321.027 15.0142H321.169L324.727 8.57955H327.703L322.412 17.6989V23.125H319.784V17.6989L314.493 8.57955Z" fill="black"/>
    <ellipse cx="371" cy="15" rx="30" ry="15" fill="#8C07DD"/>
    <path d="M353.648 12.4531C353.582 11.8329 353.302 11.3499 352.81 11.0043C352.322 10.6586 351.688 10.4858 350.907 10.4858C350.357 10.4858 349.886 10.5687 349.493 10.7344C349.1 10.9001 348.8 11.125 348.591 11.4091C348.383 11.6932 348.276 12.0175 348.272 12.3821C348.272 12.6851 348.34 12.9479 348.478 13.1705C348.62 13.393 348.811 13.5824 349.053 13.7386C349.294 13.8902 349.562 14.018 349.855 14.1222C350.149 14.2263 350.445 14.3139 350.743 14.3849L352.107 14.7259C352.656 14.8537 353.184 15.0265 353.691 15.2443C354.202 15.4621 354.659 15.7367 355.061 16.0682C355.469 16.3996 355.791 16.7997 356.027 17.2685C356.264 17.7372 356.382 18.2865 356.382 18.9162C356.382 19.7685 356.165 20.5189 355.729 21.1676C355.293 21.8116 354.664 22.3158 353.84 22.6804C353.021 23.0402 352.029 23.2202 350.864 23.2202C349.732 23.2202 348.75 23.045 347.917 22.6946C347.088 22.3442 346.439 21.8329 345.971 21.1605C345.507 20.4882 345.256 19.669 345.218 18.7031H347.81C347.848 19.2098 348.004 19.6312 348.279 19.9673C348.553 20.3035 348.911 20.5545 349.351 20.7202C349.796 20.8859 350.293 20.9688 350.843 20.9688C351.416 20.9688 351.917 20.8835 352.348 20.7131C352.784 20.5379 353.125 20.2964 353.371 19.9886C353.617 19.6761 353.743 19.3116 353.748 18.8949C353.743 18.5161 353.632 18.2036 353.414 17.9574C353.196 17.7064 352.891 17.4981 352.498 17.3324C352.109 17.1619 351.655 17.0104 351.134 16.8778L349.479 16.4517C348.281 16.1439 347.334 15.6776 346.638 15.0526C345.947 14.4228 345.601 13.5871 345.601 12.5455C345.601 11.6884 345.833 10.938 346.297 10.294C346.766 9.65009 347.403 9.15057 348.208 8.79545C349.013 8.43561 349.924 8.25568 350.942 8.25568C351.974 8.25568 352.879 8.43561 353.655 8.79545C354.436 9.15057 355.05 9.64536 355.495 10.2798C355.94 10.9096 356.169 11.634 356.184 12.4531H353.648ZM358.732 23V8.45455H364.186C365.304 8.45455 366.241 8.66288 366.999 9.07955C367.761 9.49621 368.336 10.0691 368.724 10.7983C369.117 11.5227 369.314 12.3466 369.314 13.2699C369.314 14.2027 369.117 15.0312 368.724 15.7557C368.331 16.4801 367.751 17.0507 366.984 17.4673C366.217 17.8793 365.273 18.0852 364.151 18.0852H360.536V15.919H363.795C364.449 15.919 364.984 15.8054 365.401 15.5781C365.817 15.3509 366.125 15.0384 366.324 14.6406C366.527 14.2429 366.629 13.786 366.629 13.2699C366.629 12.7538 366.527 12.2992 366.324 11.9062C366.125 11.5133 365.815 11.2079 365.393 10.9901C364.977 10.7675 364.439 10.6562 363.781 10.6562H361.366V23H358.732ZM371.603 23V8.45455H377.057C378.175 8.45455 379.112 8.64867 379.87 9.03693C380.632 9.42519 381.207 9.9697 381.596 10.6705C381.989 11.3665 382.185 12.1785 382.185 13.1065C382.185 14.0393 381.986 14.849 381.588 15.5355C381.195 16.2173 380.615 16.7453 379.848 17.1193C379.081 17.4886 378.139 17.6733 377.022 17.6733H373.137V15.4858H376.667C377.32 15.4858 377.855 15.3958 378.272 15.2159C378.688 15.0312 378.996 14.7637 379.195 14.4134C379.399 14.0582 379.5 13.6226 379.5 13.1065C379.5 12.5904 379.399 12.1501 379.195 11.7855C378.991 11.4162 378.681 11.1368 378.265 10.9474C377.848 10.7533 377.31 10.6562 376.652 10.6562H374.238V23H371.603ZM379.117 16.4091L382.718 23H379.777L376.24 16.4091H379.117ZM383.05 8.45455H386.026L389.584 14.8892H389.726L393.284 8.45455H396.26L390.969 17.5739V23H388.341V17.5739L383.05 8.45455Z" fill="black"/>
    </svg>
    