
<svg width="405" height="30" viewBox="0 0 405 30" fill="none" xmlns="http://www.w3.org/2000/svg">
    <rect y="14" width="405" height="7" fill="#D9D9D9"/>
    <ellipse cx="246.5" cy="15" rx="27.5" ry="15" fill="#8C07DD"/>
    <path d="M228.493 22.3926V7.84712H237.811V10.0559H231.128V14.0048H237.172V16.2136H231.128V22.3926H228.493ZM252.165 7.84712V22.3926H249.821L242.968 12.4849H242.847V22.3926H240.212V7.84712H242.57L249.417 17.7619H249.544V7.84712H252.165ZM260.114 22.5914C259.092 22.5914 258.183 22.4163 257.387 22.0659C256.596 21.7155 255.971 21.2278 255.512 20.6028C255.053 19.9778 254.809 19.2557 254.781 18.4366H257.451C257.475 18.8296 257.605 19.1729 257.842 19.4664C258.078 19.7553 258.393 19.9802 258.786 20.1412C259.179 20.3021 259.62 20.3826 260.107 20.3826C260.628 20.3826 261.09 20.2927 261.492 20.1127C261.895 19.9281 262.21 19.6724 262.437 19.3457C262.664 19.019 262.775 18.6426 262.771 18.2164C262.775 17.7761 262.662 17.3878 262.43 17.0517C262.198 16.7155 261.862 16.4527 261.421 16.2633C260.986 16.0739 260.46 15.9792 259.844 15.9792H258.559V13.948H259.844C260.351 13.948 260.794 13.8604 261.173 13.6852C261.556 13.51 261.857 13.2638 262.075 12.9466C262.292 12.6246 262.399 12.2529 262.394 11.8315C262.399 11.4196 262.307 11.0621 262.117 10.7591C261.933 10.4513 261.67 10.2122 261.329 10.0417C260.993 9.87127 260.597 9.78604 260.143 9.78604C259.698 9.78604 259.286 9.86654 258.907 10.0275C258.528 10.1885 258.223 10.4181 257.991 10.7164C257.759 11.01 257.636 11.3604 257.621 11.7676H255.086C255.105 10.9532 255.339 10.2382 255.789 9.62269C256.244 9.00243 256.85 8.51947 257.607 8.17383C258.365 7.82345 259.215 7.64826 260.157 7.64826C261.128 7.64826 261.97 7.83055 262.685 8.19513C263.405 8.55498 263.961 9.0403 264.354 9.6511C264.747 10.2619 264.944 10.9366 264.944 11.6752C264.949 12.4944 264.707 13.1809 264.219 13.7349C263.737 14.2889 263.102 14.6511 262.316 14.8216V14.9352C263.339 15.0772 264.122 15.456 264.667 16.0716C265.216 16.6824 265.488 17.4423 265.484 18.3514C265.484 19.1658 265.252 19.8949 264.788 20.5389C264.328 21.1781 263.694 21.68 262.884 22.0446C262.079 22.4092 261.156 22.5914 260.114 22.5914Z" fill="black"/>
    <ellipse cx="306.5" cy="15" rx="27.5" ry="15" fill="#8C07DD"/>
    <path d="M288.175 23.125V8.57955H293.629C294.747 8.57955 295.684 8.78788 296.442 9.20455C297.204 9.62121 297.78 10.1941 298.168 10.9233C298.561 11.6477 298.757 12.4716 298.757 13.3949C298.757 14.3277 298.561 15.1562 298.168 15.8807C297.775 16.6051 297.195 17.1757 296.428 17.5923C295.661 18.0043 294.716 18.2102 293.594 18.2102H289.979V16.044H293.239C293.892 16.044 294.427 15.9304 294.844 15.7031C295.261 15.4759 295.568 15.1634 295.767 14.7656C295.971 14.3679 296.073 13.911 296.073 13.3949C296.073 12.8788 295.971 12.4242 295.767 12.0312C295.568 11.6383 295.258 11.3329 294.837 11.1151C294.42 10.8925 293.883 10.7812 293.225 10.7812H290.81V23.125H288.175ZM301.046 23.125V8.57955H306.501C307.618 8.57955 308.555 8.77367 309.313 9.16193C310.075 9.55019 310.651 10.0947 311.039 10.7955C311.432 11.4915 311.628 12.3035 311.628 13.2315C311.628 14.1643 311.43 14.974 311.032 15.6605C310.639 16.3423 310.059 16.8703 309.292 17.2443C308.525 17.6136 307.582 17.7983 306.465 17.7983H302.58V15.6108H306.11C306.763 15.6108 307.298 15.5208 307.715 15.3409C308.132 15.1562 308.439 14.8887 308.638 14.5384C308.842 14.1832 308.944 13.7476 308.944 13.2315C308.944 12.7154 308.842 12.2751 308.638 11.9105C308.435 11.5412 308.125 11.2618 307.708 11.0724C307.291 10.8783 306.754 10.7812 306.096 10.7812H303.681V23.125H301.046ZM308.56 16.5341L312.161 23.125H309.221L305.684 16.5341H308.56ZM312.493 8.57955H315.469L319.027 15.0142H319.169L322.727 8.57955H325.703L320.412 17.6989V23.125H317.784V17.6989L312.493 8.57955Z" fill="black"/>
    <ellipse cx="369" cy="15" rx="30" ry="15" fill="#8C07DD"/>
    <path d="M351.648 12.4531C351.582 11.8329 351.302 11.3499 350.81 11.0043C350.322 10.6586 349.688 10.4858 348.907 10.4858C348.357 10.4858 347.886 10.5687 347.493 10.7344C347.1 10.9001 346.8 11.125 346.591 11.4091C346.383 11.6932 346.276 12.0175 346.272 12.3821C346.272 12.6851 346.34 12.9479 346.478 13.1705C346.62 13.393 346.811 13.5824 347.053 13.7386C347.294 13.8902 347.562 14.018 347.855 14.1222C348.149 14.2263 348.445 14.3139 348.743 14.3849L350.107 14.7259C350.656 14.8537 351.184 15.0265 351.691 15.2443C352.202 15.4621 352.659 15.7367 353.061 16.0682C353.469 16.3996 353.791 16.7997 354.027 17.2685C354.264 17.7372 354.382 18.2865 354.382 18.9162C354.382 19.7685 354.165 20.5189 353.729 21.1676C353.293 21.8116 352.664 22.3158 351.84 22.6804C351.021 23.0402 350.029 23.2202 348.864 23.2202C347.732 23.2202 346.75 23.045 345.917 22.6946C345.088 22.3442 344.439 21.8329 343.971 21.1605C343.507 20.4882 343.256 19.669 343.218 18.7031H345.81C345.848 19.2098 346.004 19.6312 346.279 19.9673C346.553 20.3035 346.911 20.5545 347.351 20.7202C347.796 20.8859 348.293 20.9688 348.843 20.9688C349.416 20.9688 349.917 20.8835 350.348 20.7131C350.784 20.5379 351.125 20.2964 351.371 19.9886C351.617 19.6761 351.743 19.3116 351.748 18.8949C351.743 18.5161 351.632 18.2036 351.414 17.9574C351.196 17.7064 350.891 17.4981 350.498 17.3324C350.109 17.1619 349.655 17.0104 349.134 16.8778L347.479 16.4517C346.281 16.1439 345.334 15.6776 344.638 15.0526C343.947 14.4228 343.601 13.5871 343.601 12.5455C343.601 11.6884 343.833 10.938 344.297 10.294C344.766 9.65009 345.403 9.15057 346.208 8.79545C347.013 8.43561 347.924 8.25568 348.942 8.25568C349.974 8.25568 350.879 8.43561 351.655 8.79545C352.436 9.15057 353.05 9.64536 353.495 10.2798C353.94 10.9096 354.169 11.634 354.184 12.4531H351.648ZM356.732 23V8.45455H362.186C363.304 8.45455 364.241 8.66288 364.999 9.07955C365.761 9.49621 366.336 10.0691 366.724 10.7983C367.117 11.5227 367.314 12.3466 367.314 13.2699C367.314 14.2027 367.117 15.0312 366.724 15.7557C366.331 16.4801 365.751 17.0507 364.984 17.4673C364.217 17.8793 363.273 18.0852 362.151 18.0852H358.536V15.919H361.795C362.449 15.919 362.984 15.8054 363.401 15.5781C363.817 15.3509 364.125 15.0384 364.324 14.6406C364.527 14.2429 364.629 13.786 364.629 13.2699C364.629 12.7538 364.527 12.2992 364.324 11.9062C364.125 11.5133 363.815 11.2079 363.393 10.9901C362.977 10.7675 362.439 10.6562 361.781 10.6562H359.366V23H356.732ZM369.603 23V8.45455H375.057C376.175 8.45455 377.112 8.64867 377.87 9.03693C378.632 9.42519 379.207 9.9697 379.596 10.6705C379.989 11.3665 380.185 12.1785 380.185 13.1065C380.185 14.0393 379.986 14.849 379.588 15.5355C379.195 16.2173 378.615 16.7453 377.848 17.1193C377.081 17.4886 376.139 17.6733 375.022 17.6733H371.137V15.4858H374.667C375.32 15.4858 375.855 15.3958 376.272 15.2159C376.688 15.0312 376.996 14.7637 377.195 14.4134C377.399 14.0582 377.5 13.6226 377.5 13.1065C377.5 12.5904 377.399 12.1501 377.195 11.7855C376.991 11.4162 376.681 11.1368 376.265 10.9474C375.848 10.7533 375.31 10.6562 374.652 10.6562H372.238V23H369.603ZM377.117 16.4091L380.718 23H377.777L374.24 16.4091H377.117ZM381.05 8.45455H384.026L387.584 14.8892H387.726L391.284 8.45455H394.26L388.969 17.5739V23H386.341V17.5739L381.05 8.45455Z" fill="black"/>
    <rect x="76" width="30" height="30" fill="#BBD0FF"/>
    <rect x="76" width="30" height="30" fill="#BBD0FF"/>
    <path d="M79.6515 23.2856V8.74019H85.2196C86.2708 8.74019 87.1444 8.90591 87.8404 9.23735C88.5411 9.56405 89.0643 10.0115 89.41 10.5797C89.7604 11.1479 89.9355 11.7918 89.9355 12.5115C89.9355 13.1034 89.8219 13.61 89.5946 14.0314C89.3674 14.448 89.062 14.7866 88.6784 15.047C88.2949 15.3074 87.8664 15.4945 87.3929 15.6081V15.7501C87.909 15.7785 88.4038 15.9372 88.8773 16.226C89.3555 16.5101 89.7462 16.9125 90.0492 17.4334C90.3522 17.9542 90.5037 18.5839 90.5037 19.3226C90.5037 20.0754 90.3214 20.7525 89.9569 21.3538C89.5923 21.9504 89.043 22.4215 88.3091 22.7672C87.5752 23.1128 86.6519 23.2856 85.5392 23.2856H79.6515ZM82.2864 21.0839H85.1202C86.0766 21.0839 86.7656 20.9016 87.187 20.5371C87.6131 20.1677 87.8262 19.6943 87.8262 19.1166C87.8262 18.6857 87.7196 18.2975 87.5066 17.9518C87.2935 17.6015 86.9905 17.3268 86.5975 17.128C86.2045 16.9244 85.7357 16.8226 85.1912 16.8226H82.2864V21.0839ZM82.2864 14.9263H84.8929C85.3475 14.9263 85.757 14.8434 86.1216 14.6777C86.4862 14.5072 86.7727 14.2681 86.981 13.9604C87.1941 13.6479 87.3006 13.2785 87.3006 12.8524C87.3006 12.289 87.1017 11.8249 86.704 11.4604C86.311 11.0958 85.7263 10.9135 84.9498 10.9135H82.2864V14.9263ZM92.6539 23.2856V21.3822L97.7037 16.432C98.1866 15.9443 98.5891 15.511 98.911 15.1322C99.233 14.7534 99.4745 14.3865 99.6355 14.0314C99.7965 13.6763 99.877 13.2975 99.877 12.895C99.877 12.4357 99.7728 12.0427 99.5645 11.716C99.3561 11.3846 99.0697 11.1289 98.7051 10.949C98.3405 10.7691 97.9262 10.6791 97.4622 10.6791C96.984 10.6791 96.5649 10.7785 96.2051 10.9774C95.8452 11.1715 95.5659 11.4485 95.367 11.8084C95.1729 12.1682 95.0758 12.5967 95.0758 13.0939H92.5687C92.5687 12.1706 92.7794 11.368 93.2008 10.6862C93.6222 10.0044 94.2022 9.47646 94.9409 9.10241C95.6842 8.72835 96.5365 8.54133 97.4977 8.54133C98.4731 8.54133 99.3301 8.72362 100.069 9.0882C100.807 9.45278 101.38 9.95231 101.787 10.5868C102.199 11.2212 102.405 11.9457 102.405 12.7601C102.405 13.3046 102.301 13.8396 102.093 14.3652C101.885 14.8908 101.518 15.4731 100.992 16.1123C100.471 16.7516 99.7396 17.5257 98.7974 18.4348L96.2903 20.9845V21.0839H102.626V23.2856H92.6539Z" fill="black"/>
    <rect x="112" width="30" height="30" fill="#BBD0FF"/>
    <rect x="112" width="30" height="30" fill="#BBD0FF"/>
    <path d="M126.022 13.6479H123.365C123.29 13.2123 123.15 12.8264 122.946 12.4902C122.743 12.1493 122.489 11.8605 122.186 11.6237C121.883 11.387 121.538 11.2094 121.15 11.091C120.766 10.9679 120.352 10.9064 119.907 10.9064C119.116 10.9064 118.415 11.1052 117.804 11.503C117.194 11.896 116.715 12.4736 116.37 13.2359C116.024 13.9935 115.851 14.9192 115.851 16.0129C115.851 17.1256 116.024 18.0631 116.37 18.8254C116.72 19.583 117.198 20.1559 117.804 20.5442C118.415 20.9277 119.114 21.1195 119.9 21.1195C120.335 21.1195 120.742 21.0626 121.121 20.949C121.505 20.8306 121.848 20.6578 122.151 20.4305C122.459 20.2033 122.717 19.9239 122.925 19.5925C123.138 19.261 123.285 18.8822 123.365 18.4561L126.022 18.4703C125.922 19.1616 125.707 19.8103 125.375 20.4163C125.049 21.0224 124.62 21.5574 124.09 22.0214C123.56 22.4807 122.939 22.8406 122.229 23.101C121.519 23.3567 120.73 23.4845 119.864 23.4845C118.586 23.4845 117.444 23.1886 116.441 22.5967C115.437 22.0049 114.646 21.1502 114.069 20.0328C113.491 18.9154 113.202 17.5754 113.202 16.0129C113.202 14.4457 113.493 13.1057 114.076 11.993C114.658 10.8756 115.451 10.021 116.455 9.42911C117.459 8.83725 118.595 8.54133 119.864 8.54133C120.674 8.54133 121.426 8.65496 122.123 8.88223C122.819 9.10951 123.439 9.44331 123.983 9.88366C124.528 10.3193 124.975 10.8543 125.326 11.4888C125.681 12.1185 125.913 12.8382 126.022 13.6479ZM140.885 13.6479H138.229C138.153 13.2123 138.013 12.8264 137.81 12.4902C137.606 12.1493 137.353 11.8605 137.05 11.6237C136.747 11.387 136.401 11.2094 136.013 11.091C135.629 10.9679 135.215 10.9064 134.77 10.9064C133.979 10.9064 133.278 11.1052 132.668 11.503C132.057 11.896 131.579 12.4736 131.233 13.2359C130.887 13.9935 130.714 14.9192 130.714 16.0129C130.714 17.1256 130.887 18.0631 131.233 18.8254C131.583 19.583 132.062 20.1559 132.668 20.5442C133.278 20.9277 133.977 21.1195 134.763 21.1195C135.198 21.1195 135.606 21.0626 135.984 20.949C136.368 20.8306 136.711 20.6578 137.014 20.4305C137.322 20.2033 137.58 19.9239 137.788 19.5925C138.001 19.261 138.148 18.8822 138.229 18.4561L140.885 18.4703C140.786 19.1616 140.57 19.8103 140.239 20.4163C139.912 21.0224 139.483 21.5574 138.953 22.0214C138.423 22.4807 137.803 22.8406 137.092 23.101C136.382 23.3567 135.594 23.4845 134.727 23.4845C133.449 23.4845 132.308 23.1886 131.304 22.5967C130.3 22.0049 129.509 21.1502 128.932 20.0328C128.354 18.9154 128.065 17.5754 128.065 16.0129C128.065 14.4457 128.357 13.1057 128.939 11.993C129.521 10.8756 130.314 10.021 131.318 9.42911C132.322 8.83725 133.458 8.54133 134.727 8.54133C135.537 8.54133 136.29 8.65496 136.986 8.88223C137.682 9.10951 138.302 9.44331 138.847 9.88366C139.391 10.3193 139.839 10.8543 140.189 11.4888C140.544 12.1185 140.776 12.8382 140.885 13.6479Z" fill="black"/>
    </svg>
    