<svg width="405" height="30" viewBox="0 0 405 30" fill="none" xmlns="http://www.w3.org/2000/svg">
    <rect y="14" width="405" height="7" fill="#D9D9D9"/>
    <rect x="4" width="30" height="30" fill="#BBD0FF"/>
    <rect x="4" width="30" height="30" fill="#BBD0FF"/>
    <path d="M13.9308 22.5715V8.02608H19.3853C20.5027 8.02608 21.4402 8.22021 22.1978 8.60846C22.9601 8.99672 23.5354 9.54123 23.9237 10.242C24.3166 10.938 24.5131 11.75 24.5131 12.6781C24.5131 13.6108 24.3143 14.4205 23.9165 15.107C23.5236 15.7889 22.9435 16.3168 22.1765 16.6909C21.4094 17.0602 20.4672 17.2448 19.3498 17.2448H15.4648V15.0573H18.9947C19.6481 15.0573 20.1831 14.9674 20.5998 14.7874C21.0165 14.6028 21.3242 14.3353 21.5231 13.9849C21.7267 13.6298 21.8285 13.1942 21.8285 12.6781C21.8285 12.162 21.7267 11.7216 21.5231 11.357C21.3195 10.9877 21.0094 10.7084 20.5927 10.519C20.176 10.3248 19.6386 10.2278 18.9805 10.2278H16.5657V22.5715H13.9308ZM21.445 15.9806L25.0458 22.5715H22.1055L18.5685 15.9806H21.445Z" fill="black"/>
    <rect x="40" width="30" height="30" fill="#BBD0FF"/>
    <rect x="40" width="30" height="30" fill="#BBD0FF"/>
    <path d="M45.0577 23.2856V8.74019H50.6259C51.677 8.74019 52.5506 8.90591 53.2466 9.23735C53.9474 9.56405 54.4706 10.0115 54.8162 10.5797C55.1666 11.1479 55.3418 11.7918 55.3418 12.5115C55.3418 13.1034 55.2282 13.61 55.0009 14.0314C54.7736 14.448 54.4682 14.7866 54.0847 15.047C53.7012 15.3074 53.2727 15.4945 52.7992 15.6081V15.7501C53.3153 15.7785 53.8101 15.9372 54.2836 16.226C54.7618 16.5101 55.1524 16.9125 55.4554 17.4334C55.7585 17.9542 55.91 18.5839 55.91 19.3226C55.91 20.0754 55.7277 20.7525 55.3631 21.3538C54.9985 21.9504 54.4493 22.4215 53.7154 22.7672C52.9815 23.1128 52.0582 23.2856 50.9455 23.2856H45.0577ZM47.6926 21.0839H50.5265C51.4829 21.0839 52.1718 20.9016 52.5932 20.5371C53.0194 20.1677 53.2324 19.6943 53.2324 19.1166C53.2324 18.6857 53.1259 18.2975 52.9128 17.9518C52.6998 17.6015 52.3967 17.3268 52.0037 17.128C51.6107 16.9244 51.142 16.8226 50.5975 16.8226H47.6926V21.0839ZM47.6926 14.9263H50.2992C50.7537 14.9263 51.1633 14.8434 51.5279 14.6777C51.8925 14.5072 52.1789 14.2681 52.3873 13.9604C52.6003 13.6479 52.7069 13.2785 52.7069 12.8524C52.7069 12.289 52.508 11.8249 52.1103 11.4604C51.7173 11.0958 51.1325 10.9135 50.356 10.9135H47.6926V14.9263ZM63.9764 8.74019V23.2856H61.3414V11.3041H61.2562L57.8542 13.4774V11.0626L61.4693 8.74019H63.9764Z" fill="black"/>
    <rect x="76" width="30" height="30" fill="#BBD0FF"/>
    <rect x="76" width="30" height="30" fill="#BBD0FF"/>
    <path d="M79.6515 23.2856V8.74019H85.2196C86.2708 8.74019 87.1444 8.90591 87.8404 9.23735C88.5411 9.56405 89.0643 10.0115 89.41 10.5797C89.7604 11.1479 89.9355 11.7918 89.9355 12.5115C89.9355 13.1034 89.8219 13.61 89.5946 14.0314C89.3674 14.448 89.062 14.7866 88.6784 15.047C88.2949 15.3074 87.8664 15.4945 87.3929 15.6081V15.7501C87.909 15.7785 88.4038 15.9372 88.8773 16.226C89.3555 16.5101 89.7462 16.9125 90.0492 17.4334C90.3522 17.9542 90.5037 18.5839 90.5037 19.3226C90.5037 20.0754 90.3214 20.7525 89.9569 21.3538C89.5923 21.9504 89.043 22.4215 88.3091 22.7672C87.5752 23.1128 86.6519 23.2856 85.5392 23.2856H79.6515ZM82.2864 21.0839H85.1202C86.0766 21.0839 86.7656 20.9016 87.187 20.5371C87.6131 20.1677 87.8262 19.6943 87.8262 19.1166C87.8262 18.6857 87.7196 18.2975 87.5066 17.9518C87.2935 17.6015 86.9905 17.3268 86.5975 17.128C86.2045 16.9244 85.7357 16.8226 85.1912 16.8226H82.2864V21.0839ZM82.2864 14.9263H84.8929C85.3475 14.9263 85.757 14.8434 86.1216 14.6777C86.4862 14.5072 86.7727 14.2681 86.981 13.9604C87.1941 13.6479 87.3006 13.2785 87.3006 12.8524C87.3006 12.289 87.1017 11.8249 86.704 11.4604C86.311 11.0958 85.7263 10.9135 84.9498 10.9135H82.2864V14.9263ZM92.6539 23.2856V21.3822L97.7037 16.432C98.1866 15.9443 98.5891 15.511 98.911 15.1322C99.233 14.7534 99.4745 14.3865 99.6355 14.0314C99.7965 13.6763 99.877 13.2975 99.877 12.895C99.877 12.4357 99.7728 12.0427 99.5645 11.716C99.3561 11.3846 99.0697 11.1289 98.7051 10.949C98.3405 10.7691 97.9262 10.6791 97.4622 10.6791C96.984 10.6791 96.5649 10.7785 96.2051 10.9774C95.8452 11.1715 95.5659 11.4485 95.367 11.8084C95.1729 12.1682 95.0758 12.5967 95.0758 13.0939H92.5687C92.5687 12.1706 92.7794 11.368 93.2008 10.6862C93.6222 10.0044 94.2022 9.47646 94.9409 9.10241C95.6842 8.72835 96.5365 8.54133 97.4977 8.54133C98.4731 8.54133 99.3301 8.72362 100.069 9.0882C100.807 9.45278 101.38 9.95231 101.787 10.5868C102.199 11.2212 102.405 11.9457 102.405 12.7601C102.405 13.3046 102.301 13.8396 102.093 14.3652C101.885 14.8908 101.518 15.4731 100.992 16.1123C100.471 16.7516 99.7396 17.5257 98.7974 18.4348L96.2903 20.9845V21.0839H102.626V23.2856H92.6539Z" fill="black"/>
    <rect x="112" width="30" height="30" fill="#BBD0FF"/>
    <rect x="112" width="30" height="30" fill="#BBD0FF"/>
    <path d="M126.022 13.6479H123.365C123.29 13.2123 123.15 12.8264 122.946 12.4902C122.743 12.1493 122.489 11.8605 122.186 11.6237C121.883 11.387 121.538 11.2094 121.15 11.091C120.766 10.9679 120.352 10.9064 119.907 10.9064C119.116 10.9064 118.415 11.1052 117.804 11.503C117.194 11.896 116.715 12.4736 116.37 13.2359C116.024 13.9935 115.851 14.9192 115.851 16.0129C115.851 17.1256 116.024 18.0631 116.37 18.8254C116.72 19.583 117.198 20.1559 117.804 20.5442C118.415 20.9277 119.114 21.1195 119.9 21.1195C120.335 21.1195 120.742 21.0626 121.121 20.949C121.505 20.8306 121.848 20.6578 122.151 20.4305C122.459 20.2033 122.717 19.9239 122.925 19.5925C123.138 19.261 123.285 18.8822 123.365 18.4561L126.022 18.4703C125.922 19.1616 125.707 19.8103 125.375 20.4163C125.049 21.0224 124.62 21.5574 124.09 22.0214C123.56 22.4807 122.939 22.8406 122.229 23.101C121.519 23.3567 120.73 23.4845 119.864 23.4845C118.586 23.4845 117.444 23.1886 116.441 22.5967C115.437 22.0049 114.646 21.1502 114.069 20.0328C113.491 18.9154 113.202 17.5754 113.202 16.0129C113.202 14.4457 113.493 13.1057 114.076 11.993C114.658 10.8756 115.451 10.021 116.455 9.42911C117.459 8.83725 118.595 8.54133 119.864 8.54133C120.674 8.54133 121.426 8.65496 122.123 8.88223C122.819 9.10951 123.439 9.44331 123.983 9.88366C124.528 10.3193 124.975 10.8543 125.326 11.4888C125.681 12.1185 125.913 12.8382 126.022 13.6479ZM140.885 13.6479H138.229C138.153 13.2123 138.013 12.8264 137.81 12.4902C137.606 12.1493 137.353 11.8605 137.05 11.6237C136.747 11.387 136.401 11.2094 136.013 11.091C135.629 10.9679 135.215 10.9064 134.77 10.9064C133.979 10.9064 133.278 11.1052 132.668 11.503C132.057 11.896 131.579 12.4736 131.233 13.2359C130.887 13.9935 130.714 14.9192 130.714 16.0129C130.714 17.1256 130.887 18.0631 131.233 18.8254C131.583 19.583 132.062 20.1559 132.668 20.5442C133.278 20.9277 133.977 21.1195 134.763 21.1195C135.198 21.1195 135.606 21.0626 135.984 20.949C136.368 20.8306 136.711 20.6578 137.014 20.4305C137.322 20.2033 137.58 19.9239 137.788 19.5925C138.001 19.261 138.148 18.8822 138.229 18.4561L140.885 18.4703C140.786 19.1616 140.57 19.8103 140.239 20.4163C139.912 21.0224 139.483 21.5574 138.953 22.0214C138.423 22.4807 137.803 22.8406 137.092 23.101C136.382 23.3567 135.594 23.4845 134.727 23.4845C133.449 23.4845 132.308 23.1886 131.304 22.5967C130.3 22.0049 129.509 21.1502 128.932 20.0328C128.354 18.9154 128.065 17.5754 128.065 16.0129C128.065 14.4457 128.357 13.1057 128.939 11.993C129.521 10.8756 130.314 10.021 131.318 9.42911C132.322 8.83725 133.458 8.54133 134.727 8.54133C135.537 8.54133 136.29 8.65496 136.986 8.88223C137.682 9.10951 138.302 9.44331 138.847 9.88366C139.391 10.3193 139.839 10.8543 140.189 11.4888C140.544 12.1185 140.776 12.8382 140.885 13.6479Z" fill="black"/>
    <ellipse cx="188.5" cy="15" rx="27.5" ry="15" fill="#8C07DD"/>
    <path d="M179.929 12.6479H177.273C177.197 12.2123 177.058 11.8264 176.854 11.4902C176.65 11.1493 176.397 10.8605 176.094 10.6237C175.791 10.387 175.445 10.2094 175.057 10.091C174.674 9.96794 174.259 9.90638 173.814 9.90638C173.024 9.90638 172.323 10.1052 171.712 10.503C171.101 10.896 170.623 11.4736 170.277 12.2359C169.932 12.9935 169.759 13.9192 169.759 15.0129C169.759 16.1256 169.932 17.0631 170.277 17.8254C170.628 18.583 171.106 19.1559 171.712 19.5442C172.323 19.9277 173.021 20.1195 173.807 20.1195C174.243 20.1195 174.65 20.0626 175.029 19.949C175.412 19.8306 175.756 19.6578 176.059 19.4305C176.366 19.2033 176.624 18.9239 176.833 18.5925C177.046 18.261 177.193 17.8822 177.273 17.4561L179.929 17.4703C179.83 18.1616 179.614 18.8103 179.283 19.4163C178.956 20.0224 178.528 20.5574 177.997 21.0214C177.467 21.4807 176.847 21.8406 176.137 22.101C175.426 22.3567 174.638 22.4845 173.772 22.4845C172.493 22.4845 171.352 22.1886 170.348 21.5967C169.345 21.0049 168.554 20.1502 167.976 19.0328C167.399 17.9154 167.11 16.5754 167.11 15.0129C167.11 13.4457 167.401 12.1057 167.983 10.993C168.566 9.87561 169.359 9.02097 170.363 8.42911C171.366 7.83725 172.503 7.54133 173.772 7.54133C174.581 7.54133 175.334 7.65496 176.03 7.88223C176.726 8.10951 177.346 8.44331 177.891 8.88366C178.435 9.31926 178.883 9.8543 179.233 10.4888C179.588 11.1185 179.82 11.8382 179.929 12.6479ZM195.339 15.0129C195.339 16.5802 195.046 17.9225 194.459 19.0399C193.876 20.1526 193.081 21.0049 192.072 21.5967C191.069 22.1886 189.93 22.4845 188.656 22.4845C187.383 22.4845 186.241 22.1886 185.233 21.5967C184.229 21.0001 183.434 20.1455 182.847 19.0328C182.264 17.9154 181.973 16.5754 181.973 15.0129C181.973 13.4457 182.264 12.1057 182.847 10.993C183.434 9.87561 184.229 9.02097 185.233 8.42911C186.241 7.83725 187.383 7.54133 188.656 7.54133C189.93 7.54133 191.069 7.83725 192.072 8.42911C193.081 9.02097 193.876 9.87561 194.459 10.993C195.046 12.1057 195.339 13.4457 195.339 15.0129ZM192.69 15.0129C192.69 13.9097 192.517 12.9793 192.172 12.2217C191.831 11.4594 191.357 10.8841 190.751 10.4959C190.145 10.1029 189.447 9.90638 188.656 9.90638C187.866 9.90638 187.167 10.1029 186.561 10.4959C185.955 10.8841 185.479 11.4594 185.133 12.2217C184.793 12.9793 184.622 13.9097 184.622 15.0129C184.622 16.1161 184.793 17.0489 185.133 17.8112C185.479 18.5688 185.955 19.1441 186.561 19.5371C187.167 19.9253 187.866 20.1195 188.656 20.1195C189.447 20.1195 190.145 19.9253 190.751 19.5371C191.357 19.1441 191.831 18.5688 192.172 17.8112C192.517 17.0489 192.69 16.1161 192.69 15.0129ZM205.735 11.7388C205.669 11.1185 205.39 10.6355 204.897 10.2899C204.41 9.94426 203.775 9.77144 202.994 9.77144C202.445 9.77144 201.974 9.8543 201.581 10.02C201.188 10.1857 200.887 10.4106 200.679 10.6947C200.47 10.9788 200.364 11.3032 200.359 11.6677C200.359 11.9708 200.428 12.2336 200.565 12.4561C200.707 12.6786 200.899 12.868 201.14 13.0243C201.382 13.1758 201.649 13.3036 201.943 13.4078C202.236 13.512 202.532 13.5996 202.831 13.6706L204.194 14.0115C204.743 14.1393 205.271 14.3122 205.778 14.53C206.289 14.7478 206.746 15.0224 207.149 15.3538C207.556 15.6853 207.878 16.0854 208.115 16.5541C208.351 17.0229 208.47 17.5721 208.47 18.2018C208.47 19.0541 208.252 19.8046 207.816 20.4533C207.381 21.0972 206.751 21.6015 205.927 21.966C205.108 22.3259 204.116 22.5058 202.951 22.5058C201.82 22.5058 200.837 22.3306 200.004 21.9802C199.175 21.6299 198.527 21.1185 198.058 20.4462C197.594 19.7738 197.343 18.9547 197.305 17.9888H199.897C199.935 18.4954 200.091 18.9168 200.366 19.253C200.641 19.5891 200.998 19.8401 201.439 20.0058C201.884 20.1715 202.381 20.2544 202.93 20.2544C203.503 20.2544 204.005 20.1692 204.436 19.9987C204.871 19.8235 205.212 19.582 205.458 19.2743C205.705 18.9618 205.83 18.5972 205.835 18.1805C205.83 17.8017 205.719 17.4892 205.501 17.243C205.283 16.9921 204.978 16.7838 204.585 16.618C204.197 16.4476 203.742 16.2961 203.221 16.1635L201.566 15.7373C200.368 15.4296 199.421 14.9632 198.725 14.3382C198.034 13.7085 197.689 12.8728 197.689 11.8311C197.689 10.9741 197.921 10.2236 198.385 9.57968C198.853 8.93574 199.49 8.43621 200.295 8.0811C201.1 7.72125 202.011 7.54133 203.029 7.54133C204.062 7.54133 204.966 7.72125 205.743 8.0811C206.524 8.43621 207.137 8.931 207.582 9.56547C208.027 10.1952 208.257 10.9196 208.271 11.7388H205.735Z" fill="black"/>
    <ellipse cx="248.5" cy="15" rx="27.5" ry="15" fill="#8C07DD"/>
    <path d="M230.493 22.3928V7.84737H239.811V10.0562H233.128V14.005H239.172V16.2138H233.128V22.3928H230.493ZM254.165 7.84737V22.3928H251.821L244.968 12.4852H244.847V22.3928H242.212V7.84737H244.57L251.417 17.7621H251.544V7.84737H254.165ZM262.114 22.5917C261.092 22.5917 260.183 22.4165 259.387 22.0661C258.596 21.7157 257.971 21.228 257.512 20.603C257.053 19.978 256.809 19.256 256.781 18.4369H259.451C259.475 18.8298 259.605 19.1731 259.842 19.4667C260.078 19.7555 260.393 19.9804 260.786 20.1414C261.179 20.3024 261.62 20.3829 262.107 20.3829C262.628 20.3829 263.09 20.2929 263.492 20.113C263.895 19.9283 264.21 19.6727 264.437 19.3459C264.664 19.0192 264.775 18.6428 264.771 18.2167C264.775 17.7763 264.662 17.3881 264.43 17.0519C264.198 16.7157 263.862 16.453 263.421 16.2636C262.986 16.0742 262.46 15.9795 261.844 15.9795H260.559V13.9482H261.844C262.351 13.9482 262.794 13.8606 263.173 13.6854C263.556 13.5102 263.857 13.264 264.075 12.9468C264.292 12.6248 264.399 12.2531 264.394 11.8317C264.399 11.4198 264.307 11.0623 264.117 10.7593C263.933 10.4515 263.67 10.2124 263.329 10.042C262.993 9.87151 262.597 9.78629 262.143 9.78629C261.698 9.78629 261.286 9.86678 260.907 10.0278C260.528 10.1887 260.223 10.4184 259.991 10.7167C259.759 11.0102 259.636 11.3606 259.621 11.7678H257.086C257.105 10.9534 257.339 10.2385 257.789 9.62294C258.244 9.00267 258.85 8.51972 259.607 8.17407C260.365 7.82369 261.215 7.6485 262.157 7.6485C263.128 7.6485 263.97 7.8308 264.685 8.19538C265.405 8.55523 265.961 9.04055 266.354 9.65134C266.747 10.2621 266.944 10.9369 266.944 11.6755C266.949 12.4946 266.707 13.1812 266.219 13.7352C265.737 14.2891 265.102 14.6513 264.316 14.8218V14.9354C265.339 15.0775 266.122 15.4563 266.667 16.0718C267.216 16.6826 267.488 17.4425 267.484 18.3516C267.484 19.166 267.252 19.8952 266.788 20.5391C266.328 21.1783 265.694 21.6802 264.884 22.0448C264.079 22.4094 263.156 22.5917 262.114 22.5917Z" fill="black"/>
    <ellipse cx="308.5" cy="15" rx="27.5" ry="15" fill="#8C07DD"/>
    <path d="M290.175 23.125V8.57955H295.629C296.747 8.57955 297.684 8.78788 298.442 9.20455C299.204 9.62121 299.78 10.1941 300.168 10.9233C300.561 11.6477 300.757 12.4716 300.757 13.3949C300.757 14.3277 300.561 15.1562 300.168 15.8807C299.775 16.6051 299.195 17.1757 298.428 17.5923C297.661 18.0043 296.716 18.2102 295.594 18.2102H291.979V16.044H295.239C295.892 16.044 296.427 15.9304 296.844 15.7031C297.261 15.4759 297.568 15.1634 297.767 14.7656C297.971 14.3679 298.073 13.911 298.073 13.3949C298.073 12.8788 297.971 12.4242 297.767 12.0312C297.568 11.6383 297.258 11.3329 296.837 11.1151C296.42 10.8925 295.883 10.7812 295.225 10.7812H292.81V23.125H290.175ZM303.046 23.125V8.57955H308.501C309.618 8.57955 310.555 8.77367 311.313 9.16193C312.075 9.55019 312.651 10.0947 313.039 10.7955C313.432 11.4915 313.628 12.3035 313.628 13.2315C313.628 14.1643 313.43 14.974 313.032 15.6605C312.639 16.3423 312.059 16.8703 311.292 17.2443C310.525 17.6136 309.582 17.7983 308.465 17.7983H304.58V15.6108H308.11C308.763 15.6108 309.298 15.5208 309.715 15.3409C310.132 15.1562 310.439 14.8887 310.638 14.5384C310.842 14.1832 310.944 13.7476 310.944 13.2315C310.944 12.7154 310.842 12.2751 310.638 11.9105C310.435 11.5412 310.125 11.2618 309.708 11.0724C309.291 10.8783 308.754 10.7812 308.096 10.7812H305.681V23.125H303.046ZM310.56 16.5341L314.161 23.125H311.221L307.684 16.5341H310.56ZM314.493 8.57955H317.469L321.027 15.0142H321.169L324.727 8.57955H327.703L322.412 17.6989V23.125H319.784V17.6989L314.493 8.57955Z" fill="black"/>
    <ellipse cx="371" cy="15" rx="30" ry="15" fill="#8C07DD"/>
    <path d="M353.648 12.4531C353.582 11.8329 353.302 11.3499 352.81 11.0043C352.322 10.6586 351.688 10.4858 350.907 10.4858C350.357 10.4858 349.886 10.5687 349.493 10.7344C349.1 10.9001 348.8 11.125 348.591 11.4091C348.383 11.6932 348.276 12.0175 348.272 12.3821C348.272 12.6851 348.34 12.9479 348.478 13.1705C348.62 13.393 348.811 13.5824 349.053 13.7386C349.294 13.8902 349.562 14.018 349.855 14.1222C350.149 14.2263 350.445 14.3139 350.743 14.3849L352.107 14.7259C352.656 14.8537 353.184 15.0265 353.691 15.2443C354.202 15.4621 354.659 15.7367 355.061 16.0682C355.469 16.3996 355.791 16.7997 356.027 17.2685C356.264 17.7372 356.382 18.2865 356.382 18.9162C356.382 19.7685 356.165 20.5189 355.729 21.1676C355.293 21.8116 354.664 22.3158 353.84 22.6804C353.021 23.0402 352.029 23.2202 350.864 23.2202C349.732 23.2202 348.75 23.045 347.917 22.6946C347.088 22.3442 346.439 21.8329 345.971 21.1605C345.507 20.4882 345.256 19.669 345.218 18.7031H347.81C347.848 19.2098 348.004 19.6312 348.279 19.9673C348.553 20.3035 348.911 20.5545 349.351 20.7202C349.796 20.8859 350.293 20.9688 350.843 20.9688C351.416 20.9688 351.917 20.8835 352.348 20.7131C352.784 20.5379 353.125 20.2964 353.371 19.9886C353.617 19.6761 353.743 19.3116 353.748 18.8949C353.743 18.5161 353.632 18.2036 353.414 17.9574C353.196 17.7064 352.891 17.4981 352.498 17.3324C352.109 17.1619 351.655 17.0104 351.134 16.8778L349.479 16.4517C348.281 16.1439 347.334 15.6776 346.638 15.0526C345.947 14.4228 345.601 13.5871 345.601 12.5455C345.601 11.6884 345.833 10.938 346.297 10.294C346.766 9.65009 347.403 9.15057 348.208 8.79545C349.013 8.43561 349.924 8.25568 350.942 8.25568C351.974 8.25568 352.879 8.43561 353.655 8.79545C354.436 9.15057 355.05 9.64536 355.495 10.2798C355.94 10.9096 356.169 11.634 356.184 12.4531H353.648ZM358.732 23V8.45455H364.186C365.304 8.45455 366.241 8.66288 366.999 9.07955C367.761 9.49621 368.336 10.0691 368.724 10.7983C369.117 11.5227 369.314 12.3466 369.314 13.2699C369.314 14.2027 369.117 15.0312 368.724 15.7557C368.331 16.4801 367.751 17.0507 366.984 17.4673C366.217 17.8793 365.273 18.0852 364.151 18.0852H360.536V15.919H363.795C364.449 15.919 364.984 15.8054 365.401 15.5781C365.817 15.3509 366.125 15.0384 366.324 14.6406C366.527 14.2429 366.629 13.786 366.629 13.2699C366.629 12.7538 366.527 12.2992 366.324 11.9062C366.125 11.5133 365.815 11.2079 365.393 10.9901C364.977 10.7675 364.439 10.6562 363.781 10.6562H361.366V23H358.732ZM371.603 23V8.45455H377.057C378.175 8.45455 379.112 8.64867 379.87 9.03693C380.632 9.42519 381.207 9.9697 381.596 10.6705C381.989 11.3665 382.185 12.1785 382.185 13.1065C382.185 14.0393 381.986 14.849 381.588 15.5355C381.195 16.2173 380.615 16.7453 379.848 17.1193C379.081 17.4886 378.139 17.6733 377.022 17.6733H373.137V15.4858H376.667C377.32 15.4858 377.855 15.3958 378.272 15.2159C378.688 15.0312 378.996 14.7637 379.195 14.4134C379.399 14.0582 379.5 13.6226 379.5 13.1065C379.5 12.5904 379.399 12.1501 379.195 11.7855C378.991 11.4162 378.681 11.1368 378.265 10.9474C377.848 10.7533 377.31 10.6562 376.652 10.6562H374.238V23H371.603ZM379.117 16.4091L382.718 23H379.777L376.24 16.4091H379.117ZM383.05 8.45455H386.026L389.584 14.8892H389.726L393.284 8.45455H396.26L390.969 17.5739V23H388.341V17.5739L383.05 8.45455Z" fill="black"/>
    </svg>
    