
<svg width="405" height="31" viewBox="0 0 405 31" fill="none" xmlns="http://www.w3.org/2000/svg">
    <rect y="14.4666" width="405" height="7.23333" fill="#D9D9D9"/>
    <rect x="4" width="30" height="30" fill="#BBD0FF"/>
    <rect x="4" width="30" height="30" fill="#BBD0FF"/>
    <path d="M13.9308 22.5715V8.02608H19.3853C20.5027 8.02608 21.4402 8.22021 22.1978 8.60846C22.9601 8.99672 23.5354 9.54123 23.9237 10.242C24.3166 10.938 24.5131 11.75 24.5131 12.6781C24.5131 13.6108 24.3143 14.4205 23.9165 15.107C23.5236 15.7889 22.9435 16.3168 22.1765 16.6909C21.4094 17.0602 20.4672 17.2448 19.3498 17.2448H15.4648V15.0573H18.9947C19.6481 15.0573 20.1831 14.9674 20.5998 14.7874C21.0165 14.6028 21.3242 14.3353 21.5231 13.9849C21.7267 13.6298 21.8285 13.1942 21.8285 12.6781C21.8285 12.162 21.7267 11.7216 21.5231 11.357C21.3195 10.9877 21.0094 10.7084 20.5927 10.519C20.176 10.3248 19.6386 10.2278 18.9805 10.2278H16.5657V22.5715H13.9308ZM21.445 15.9806L25.0458 22.5715H22.1055L18.5685 15.9806H21.445Z" fill="black"/>
    <ellipse cx="371" cy="15" rx="30" ry="15" fill="#8C07DD"/>
    <path d="M353.648 12.4531C353.582 11.8329 353.302 11.3499 352.81 11.0043C352.322 10.6586 351.688 10.4858 350.907 10.4858C350.357 10.4858 349.886 10.5687 349.493 10.7344C349.1 10.9001 348.8 11.125 348.591 11.4091C348.383 11.6932 348.276 12.0175 348.272 12.3821C348.272 12.6851 348.34 12.9479 348.478 13.1705C348.62 13.393 348.811 13.5824 349.053 13.7386C349.294 13.8902 349.562 14.018 349.855 14.1222C350.149 14.2263 350.445 14.3139 350.743 14.3849L352.107 14.7259C352.656 14.8537 353.184 15.0265 353.691 15.2443C354.202 15.4621 354.659 15.7367 355.061 16.0682C355.469 16.3996 355.791 16.7997 356.027 17.2685C356.264 17.7372 356.382 18.2865 356.382 18.9162C356.382 19.7685 356.165 20.5189 355.729 21.1676C355.293 21.8116 354.664 22.3158 353.84 22.6804C353.021 23.0402 352.029 23.2202 350.864 23.2202C349.732 23.2202 348.75 23.045 347.917 22.6946C347.088 22.3442 346.439 21.8329 345.971 21.1605C345.507 20.4882 345.256 19.669 345.218 18.7031H347.81C347.848 19.2098 348.004 19.6312 348.279 19.9673C348.553 20.3035 348.911 20.5545 349.351 20.7202C349.796 20.8859 350.293 20.9688 350.843 20.9688C351.416 20.9688 351.917 20.8835 352.348 20.7131C352.784 20.5379 353.125 20.2964 353.371 19.9886C353.617 19.6761 353.743 19.3116 353.748 18.8949C353.743 18.5161 353.632 18.2036 353.414 17.9574C353.196 17.7064 352.891 17.4981 352.498 17.3324C352.109 17.1619 351.655 17.0104 351.134 16.8778L349.479 16.4517C348.281 16.1439 347.334 15.6776 346.638 15.0526C345.947 14.4228 345.601 13.5871 345.601 12.5455C345.601 11.6884 345.833 10.938 346.297 10.294C346.766 9.65009 347.403 9.15057 348.208 8.79545C349.013 8.43561 349.924 8.25568 350.942 8.25568C351.974 8.25568 352.879 8.43561 353.655 8.79545C354.436 9.15057 355.05 9.64536 355.495 10.2798C355.94 10.9096 356.169 11.634 356.184 12.4531H353.648ZM358.732 23V8.45455H364.186C365.304 8.45455 366.241 8.66288 366.999 9.07955C367.761 9.49621 368.336 10.0691 368.724 10.7983C369.117 11.5227 369.314 12.3466 369.314 13.2699C369.314 14.2027 369.117 15.0312 368.724 15.7557C368.331 16.4801 367.751 17.0507 366.984 17.4673C366.217 17.8793 365.273 18.0852 364.151 18.0852H360.536V15.919H363.795C364.449 15.919 364.984 15.8054 365.401 15.5781C365.817 15.3509 366.125 15.0384 366.324 14.6406C366.527 14.2429 366.629 13.786 366.629 13.2699C366.629 12.7538 366.527 12.2992 366.324 11.9062C366.125 11.5133 365.815 11.2079 365.393 10.9901C364.977 10.7675 364.439 10.6562 363.781 10.6562H361.366V23H358.732ZM371.603 23V8.45455H377.057C378.175 8.45455 379.112 8.64867 379.87 9.03693C380.632 9.42519 381.207 9.9697 381.596 10.6705C381.989 11.3665 382.185 12.1785 382.185 13.1065C382.185 14.0393 381.986 14.849 381.588 15.5355C381.195 16.2173 380.615 16.7453 379.848 17.1193C379.081 17.4886 378.139 17.6733 377.022 17.6733H373.137V15.4858H376.667C377.32 15.4858 377.855 15.3958 378.272 15.2159C378.688 15.0312 378.996 14.7637 379.195 14.4134C379.399 14.0582 379.5 13.6226 379.5 13.1065C379.5 12.5904 379.399 12.1501 379.195 11.7855C378.991 11.4162 378.681 11.1368 378.265 10.9474C377.848 10.7533 377.31 10.6562 376.652 10.6562H374.238V23H371.603ZM379.117 16.4091L382.718 23H379.777L376.24 16.4091H379.117ZM383.05 8.45455H386.026L389.584 14.8892H389.726L393.284 8.45455H396.26L390.969 17.5739V23H388.341V17.5739L383.05 8.45455Z" fill="black"/>
    <rect x="76" width="30" height="30" fill="#BBD0FF"/>
    <rect x="76" width="30" height="30" fill="#BBD0FF"/>
    <path d="M79.6515 23.2856V8.74019H85.2196C86.2708 8.74019 87.1444 8.90591 87.8404 9.23735C88.5411 9.56405 89.0643 10.0115 89.41 10.5797C89.7604 11.1479 89.9355 11.7918 89.9355 12.5115C89.9355 13.1034 89.8219 13.61 89.5946 14.0314C89.3674 14.448 89.062 14.7866 88.6784 15.047C88.2949 15.3074 87.8664 15.4945 87.3929 15.6081V15.7501C87.909 15.7785 88.4038 15.9372 88.8773 16.226C89.3555 16.5101 89.7462 16.9125 90.0492 17.4334C90.3522 17.9542 90.5037 18.5839 90.5037 19.3226C90.5037 20.0754 90.3214 20.7525 89.9569 21.3538C89.5923 21.9504 89.043 22.4215 88.3091 22.7672C87.5752 23.1128 86.6519 23.2856 85.5392 23.2856H79.6515ZM82.2864 21.0839H85.1202C86.0766 21.0839 86.7656 20.9016 87.187 20.5371C87.6131 20.1677 87.8262 19.6943 87.8262 19.1166C87.8262 18.6857 87.7196 18.2975 87.5066 17.9518C87.2935 17.6015 86.9905 17.3268 86.5975 17.128C86.2045 16.9244 85.7357 16.8226 85.1912 16.8226H82.2864V21.0839ZM82.2864 14.9263H84.8929C85.3475 14.9263 85.757 14.8434 86.1216 14.6777C86.4862 14.5072 86.7727 14.2681 86.981 13.9604C87.1941 13.6479 87.3006 13.2785 87.3006 12.8524C87.3006 12.289 87.1017 11.8249 86.704 11.4604C86.311 11.0958 85.7263 10.9135 84.9498 10.9135H82.2864V14.9263ZM92.6539 23.2856V21.3822L97.7037 16.432C98.1866 15.9443 98.5891 15.511 98.911 15.1322C99.233 14.7534 99.4745 14.3865 99.6355 14.0314C99.7965 13.6763 99.877 13.2975 99.877 12.895C99.877 12.4357 99.7728 12.0427 99.5645 11.716C99.3561 11.3846 99.0697 11.1289 98.7051 10.949C98.3405 10.7691 97.9262 10.6791 97.4622 10.6791C96.984 10.6791 96.5649 10.7785 96.2051 10.9774C95.8452 11.1715 95.5659 11.4485 95.367 11.8084C95.1729 12.1682 95.0758 12.5967 95.0758 13.0939H92.5687C92.5687 12.1706 92.7794 11.368 93.2008 10.6862C93.6222 10.0044 94.2022 9.47646 94.9409 9.10241C95.6842 8.72835 96.5365 8.54133 97.4977 8.54133C98.4731 8.54133 99.3301 8.72362 100.069 9.0882C100.807 9.45278 101.38 9.95231 101.787 10.5868C102.199 11.2212 102.405 11.9457 102.405 12.7601C102.405 13.3046 102.301 13.8396 102.093 14.3652C101.885 14.8908 101.518 15.4731 100.992 16.1123C100.471 16.7516 99.7396 17.5257 98.7974 18.4348L96.2903 20.9845V21.0839H102.626V23.2856H92.6539Z" fill="black"/>
    </svg>
    