
<svg width="405" height="30" viewBox="0 0 405 30" fill="none" xmlns="http://www.w3.org/2000/svg">
    <rect y="14" width="405" height="7" fill="#D9D9D9"/>
    <rect x="4" width="30" height="30" fill="#BBD0FF"/>
    <rect x="4" width="30" height="30" fill="#BBD0FF"/>
    <path d="M4.94283 18.5715V9.84426H8.21555C8.88601 9.84426 9.44851 9.96926 9.90305 10.2193C10.3604 10.4693 10.7056 10.813 10.9386 11.2505C11.1744 11.6852 11.2923 12.1795 11.2923 12.7335C11.2923 13.2931 11.1744 13.7903 10.9386 14.2249C10.7028 14.6596 10.3548 15.0019 9.89453 15.2519C9.4343 15.4991 8.86754 15.6227 8.19425 15.6227H6.02521V14.323H7.98118C8.37322 14.323 8.69425 14.2548 8.94425 14.1184C9.19425 13.982 9.37891 13.7945 9.49822 13.5559C9.62038 13.3173 9.68146 13.0431 9.68146 12.7335C9.68146 12.4238 9.62038 12.1511 9.49822 11.9153C9.37891 11.6795 9.19283 11.4962 8.93999 11.3656C8.68999 11.232 8.36754 11.1653 7.97266 11.1653H6.52379V18.5715H4.94283ZM13.5561 21.0261C13.3459 21.0261 13.1513 21.009 12.9723 20.9749C12.7962 20.9437 12.6555 20.9068 12.5504 20.8641L12.9084 19.6624C13.1328 19.7278 13.3331 19.759 13.5092 19.7562C13.6854 19.7534 13.8402 19.698 13.9737 19.59C14.1101 19.4849 14.2251 19.3087 14.3189 19.0616L14.451 18.7079L12.0774 12.0261H13.7138L15.2223 16.9693H15.2905L16.8033 12.0261H18.4439L15.8232 19.3641C15.701 19.7107 15.5391 20.0076 15.3374 20.2548C15.1357 20.5048 14.8885 20.6951 14.5959 20.8258C14.3061 20.9593 13.9595 21.0261 13.5561 21.0261ZM19.5114 18.5715V12.0261H21.0071V13.117H21.0753C21.1946 12.7391 21.3991 12.448 21.6889 12.2434C21.9815 12.036 22.3153 11.9323 22.6903 11.9323C22.7756 11.9323 22.8707 11.9366 22.9759 11.9451C23.0838 11.9508 23.1733 11.9607 23.2443 11.9749V13.394C23.179 13.3712 23.0753 13.3514 22.9332 13.3343C22.794 13.3144 22.6591 13.3045 22.5284 13.3045C22.2472 13.3045 21.9943 13.3656 21.7699 13.4877C21.5483 13.607 21.3736 13.7732 21.2457 13.9863C21.1179 14.1994 21.054 14.4451 21.054 14.7235V18.5715H19.5114ZM24.2692 18.5715V12.0261H25.8118V18.5715H24.2692ZM25.0447 11.0971C24.8004 11.0971 24.5902 11.0161 24.4141 10.8542C24.2379 10.6894 24.1499 10.492 24.1499 10.2619C24.1499 10.0289 24.2379 9.83148 24.4141 9.66954C24.5902 9.50477 24.8004 9.42239 25.0447 9.42239C25.2919 9.42239 25.5021 9.50477 25.6754 9.66954C25.8516 9.83148 25.9396 10.0289 25.9396 10.2619C25.9396 10.492 25.8516 10.6894 25.6754 10.8542C25.5021 11.0161 25.2919 11.0971 25.0447 11.0971ZM28.9407 14.7363V18.5715H27.3981V12.0261H28.8725V13.1383H28.9492C29.0998 12.7718 29.3398 12.4806 29.6694 12.2647C30.0018 12.0488 30.4123 11.9409 30.9009 11.9409C31.3526 11.9409 31.7461 12.0374 32.0813 12.2306C32.4194 12.4238 32.6808 12.7036 32.8654 13.0701C33.0529 13.4366 33.1452 13.8812 33.1424 14.4039V18.5715H31.5998V14.6426C31.5998 14.2051 31.4862 13.8627 31.2589 13.6156C31.0344 13.3684 30.7234 13.2448 30.3256 13.2448C30.0558 13.2448 29.8157 13.3045 29.6055 13.4238C29.3981 13.5403 29.2347 13.7093 29.1154 13.9309C28.9989 14.1525 28.9407 14.421 28.9407 14.7363Z" fill="black"/>
    <rect x="40" width="30" height="30" fill="#BBD0FF"/>
    <rect x="40" width="30" height="30" fill="#BBD0FF"/>
    <path d="M45.0577 23.2856V8.74019H50.6259C51.677 8.74019 52.5506 8.90591 53.2466 9.23735C53.9474 9.56405 54.4706 10.0115 54.8162 10.5797C55.1666 11.1479 55.3418 11.7918 55.3418 12.5115C55.3418 13.1034 55.2282 13.61 55.0009 14.0314C54.7736 14.448 54.4682 14.7866 54.0847 15.047C53.7012 15.3074 53.2727 15.4945 52.7992 15.6081V15.7501C53.3153 15.7785 53.8101 15.9372 54.2836 16.226C54.7618 16.5101 55.1524 16.9125 55.4554 17.4334C55.7585 17.9542 55.91 18.5839 55.91 19.3226C55.91 20.0754 55.7277 20.7525 55.3631 21.3538C54.9985 21.9504 54.4493 22.4215 53.7154 22.7672C52.9815 23.1128 52.0582 23.2856 50.9455 23.2856H45.0577ZM47.6926 21.0839H50.5265C51.4829 21.0839 52.1718 20.9016 52.5932 20.5371C53.0194 20.1677 53.2324 19.6943 53.2324 19.1166C53.2324 18.6857 53.1259 18.2975 52.9128 17.9518C52.6998 17.6015 52.3967 17.3268 52.0037 17.128C51.6107 16.9244 51.142 16.8226 50.5975 16.8226H47.6926V21.0839ZM47.6926 14.9263H50.2992C50.7537 14.9263 51.1633 14.8434 51.5279 14.6777C51.8925 14.5072 52.1789 14.2681 52.3873 13.9604C52.6003 13.6479 52.7069 13.2785 52.7069 12.8524C52.7069 12.289 52.508 11.8249 52.1103 11.4604C51.7173 11.0958 51.1325 10.9135 50.356 10.9135H47.6926V14.9263ZM63.9764 8.74019V23.2856H61.3414V11.3041H61.2562L57.8542 13.4774V11.0626L61.4693 8.74019H63.9764Z" fill="black"/>
    <rect x="76" width="30" height="30" fill="#BBD0FF"/>
    <rect x="76" width="30" height="30" fill="#BBD0FF"/>
    <path d="M79.6515 23.2856V8.74019H85.2196C86.2708 8.74019 87.1444 8.90591 87.8404 9.23735C88.5411 9.56405 89.0643 10.0115 89.41 10.5797C89.7604 11.1479 89.9355 11.7918 89.9355 12.5115C89.9355 13.1034 89.8219 13.61 89.5946 14.0314C89.3674 14.448 89.062 14.7866 88.6784 15.047C88.2949 15.3074 87.8664 15.4945 87.3929 15.6081V15.7501C87.909 15.7785 88.4038 15.9372 88.8773 16.226C89.3555 16.5101 89.7462 16.9125 90.0492 17.4334C90.3522 17.9542 90.5037 18.5839 90.5037 19.3226C90.5037 20.0754 90.3214 20.7525 89.9569 21.3538C89.5923 21.9504 89.043 22.4215 88.3091 22.7672C87.5752 23.1128 86.6519 23.2856 85.5392 23.2856H79.6515ZM82.2864 21.0839H85.1202C86.0766 21.0839 86.7656 20.9016 87.187 20.5371C87.6131 20.1677 87.8262 19.6943 87.8262 19.1166C87.8262 18.6857 87.7196 18.2975 87.5066 17.9518C87.2935 17.6015 86.9905 17.3268 86.5975 17.128C86.2045 16.9244 85.7357 16.8226 85.1912 16.8226H82.2864V21.0839ZM82.2864 14.9263H84.8929C85.3475 14.9263 85.757 14.8434 86.1216 14.6777C86.4862 14.5072 86.7727 14.2681 86.981 13.9604C87.1941 13.6479 87.3006 13.2785 87.3006 12.8524C87.3006 12.289 87.1017 11.8249 86.704 11.4604C86.311 11.0958 85.7263 10.9135 84.9498 10.9135H82.2864V14.9263ZM92.6539 23.2856V21.3822L97.7037 16.432C98.1866 15.9443 98.5891 15.511 98.911 15.1322C99.233 14.7534 99.4745 14.3865 99.6355 14.0314C99.7965 13.6763 99.877 13.2975 99.877 12.895C99.877 12.4357 99.7728 12.0427 99.5645 11.716C99.3561 11.3846 99.0697 11.1289 98.7051 10.949C98.3405 10.7691 97.9262 10.6791 97.4622 10.6791C96.984 10.6791 96.5649 10.7785 96.2051 10.9774C95.8452 11.1715 95.5659 11.4485 95.367 11.8084C95.1729 12.1682 95.0758 12.5967 95.0758 13.0939H92.5687C92.5687 12.1706 92.7794 11.368 93.2008 10.6862C93.6222 10.0044 94.2022 9.47646 94.9409 9.10241C95.6842 8.72835 96.5365 8.54133 97.4977 8.54133C98.4731 8.54133 99.3301 8.72362 100.069 9.0882C100.807 9.45278 101.38 9.95231 101.787 10.5868C102.199 11.2212 102.405 11.9457 102.405 12.7601C102.405 13.3046 102.301 13.8396 102.093 14.3652C101.885 14.8908 101.518 15.4731 100.992 16.1123C100.471 16.7516 99.7396 17.5257 98.7974 18.4348L96.2903 20.9845V21.0839H102.626V23.2856H92.6539Z" fill="black"/>
    <rect x="112" width="30" height="30" fill="#BBD0FF"/>
    <rect x="112" width="30" height="30" fill="#BBD0FF"/>
    <path d="M126.022 13.6479H123.365C123.29 13.2123 123.15 12.8264 122.946 12.4902C122.743 12.1493 122.489 11.8605 122.186 11.6237C121.883 11.387 121.538 11.2094 121.15 11.091C120.766 10.9679 120.352 10.9064 119.907 10.9064C119.116 10.9064 118.415 11.1052 117.804 11.503C117.194 11.896 116.715 12.4736 116.37 13.2359C116.024 13.9935 115.851 14.9192 115.851 16.0129C115.851 17.1256 116.024 18.0631 116.37 18.8254C116.72 19.583 117.198 20.1559 117.804 20.5442C118.415 20.9277 119.114 21.1195 119.9 21.1195C120.335 21.1195 120.742 21.0626 121.121 20.949C121.505 20.8306 121.848 20.6578 122.151 20.4305C122.459 20.2033 122.717 19.9239 122.925 19.5925C123.138 19.261 123.285 18.8822 123.365 18.4561L126.022 18.4703C125.922 19.1616 125.707 19.8103 125.375 20.4163C125.049 21.0224 124.62 21.5574 124.09 22.0214C123.56 22.4807 122.939 22.8406 122.229 23.101C121.519 23.3567 120.73 23.4845 119.864 23.4845C118.586 23.4845 117.444 23.1886 116.441 22.5967C115.437 22.0049 114.646 21.1502 114.069 20.0328C113.491 18.9154 113.202 17.5754 113.202 16.0129C113.202 14.4457 113.493 13.1057 114.076 11.993C114.658 10.8756 115.451 10.021 116.455 9.42911C117.459 8.83725 118.595 8.54133 119.864 8.54133C120.674 8.54133 121.426 8.65496 122.123 8.88223C122.819 9.10951 123.439 9.44331 123.983 9.88366C124.528 10.3193 124.975 10.8543 125.326 11.4888C125.681 12.1185 125.913 12.8382 126.022 13.6479ZM140.885 13.6479H138.229C138.153 13.2123 138.013 12.8264 137.81 12.4902C137.606 12.1493 137.353 11.8605 137.05 11.6237C136.747 11.387 136.401 11.2094 136.013 11.091C135.629 10.9679 135.215 10.9064 134.77 10.9064C133.979 10.9064 133.278 11.1052 132.668 11.503C132.057 11.896 131.579 12.4736 131.233 13.2359C130.887 13.9935 130.714 14.9192 130.714 16.0129C130.714 17.1256 130.887 18.0631 131.233 18.8254C131.583 19.583 132.062 20.1559 132.668 20.5442C133.278 20.9277 133.977 21.1195 134.763 21.1195C135.198 21.1195 135.606 21.0626 135.984 20.949C136.368 20.8306 136.711 20.6578 137.014 20.4305C137.322 20.2033 137.58 19.9239 137.788 19.5925C138.001 19.261 138.148 18.8822 138.229 18.4561L140.885 18.4703C140.786 19.1616 140.57 19.8103 140.239 20.4163C139.912 21.0224 139.483 21.5574 138.953 22.0214C138.423 22.4807 137.803 22.8406 137.092 23.101C136.382 23.3567 135.594 23.4845 134.727 23.4845C133.449 23.4845 132.308 23.1886 131.304 22.5967C130.3 22.0049 129.509 21.1502 128.932 20.0328C128.354 18.9154 128.065 17.5754 128.065 16.0129C128.065 14.4457 128.357 13.1057 128.939 11.993C129.521 10.8756 130.314 10.021 131.318 9.42911C132.322 8.83725 133.458 8.54133 134.727 8.54133C135.537 8.54133 136.29 8.65496 136.986 8.88223C137.682 9.10951 138.302 9.44331 138.847 9.88366C139.391 10.3193 139.839 10.8543 140.189 11.4888C140.544 12.1185 140.776 12.8382 140.885 13.6479Z" fill="black"/>
    <ellipse cx="305.5" cy="15" rx="27.5" ry="15" fill="#8C07DD"/>
    <path d="M287.175 23.125V8.57955H292.629C293.747 8.57955 294.684 8.78788 295.442 9.20455C296.204 9.62121 296.78 10.1941 297.168 10.9233C297.561 11.6477 297.757 12.4716 297.757 13.3949C297.757 14.3277 297.561 15.1562 297.168 15.8807C296.775 16.6051 296.195 17.1757 295.428 17.5923C294.661 18.0043 293.716 18.2102 292.594 18.2102H288.979V16.044H292.239C292.892 16.044 293.427 15.9304 293.844 15.7031C294.261 15.4759 294.568 15.1634 294.767 14.7656C294.971 14.3679 295.073 13.911 295.073 13.3949C295.073 12.8788 294.971 12.4242 294.767 12.0312C294.568 11.6383 294.258 11.3329 293.837 11.1151C293.42 10.8925 292.883 10.7812 292.225 10.7812H289.81V23.125H287.175ZM300.046 23.125V8.57955H305.501C306.618 8.57955 307.555 8.77367 308.313 9.16193C309.075 9.55019 309.651 10.0947 310.039 10.7955C310.432 11.4915 310.628 12.3035 310.628 13.2315C310.628 14.1643 310.43 14.974 310.032 15.6605C309.639 16.3423 309.059 16.8703 308.292 17.2443C307.525 17.6136 306.582 17.7983 305.465 17.7983H301.58V15.6108H305.11C305.763 15.6108 306.298 15.5208 306.715 15.3409C307.132 15.1562 307.439 14.8887 307.638 14.5384C307.842 14.1832 307.944 13.7476 307.944 13.2315C307.944 12.7154 307.842 12.2751 307.638 11.9105C307.435 11.5412 307.125 11.2618 306.708 11.0724C306.291 10.8783 305.754 10.7812 305.096 10.7812H302.681V23.125H300.046ZM307.56 16.5341L311.161 23.125H308.221L304.684 16.5341H307.56ZM311.493 8.57955H314.469L318.027 15.0142H318.169L321.727 8.57955H324.703L319.412 17.6989V23.125H316.784V17.6989L311.493 8.57955Z" fill="black"/>
    <ellipse cx="368" cy="15" rx="30" ry="15" fill="#8C07DD"/>
    <path d="M350.648 12.4531C350.582 11.8329 350.302 11.3499 349.81 11.0043C349.322 10.6586 348.688 10.4858 347.907 10.4858C347.357 10.4858 346.886 10.5687 346.493 10.7344C346.1 10.9001 345.8 11.125 345.591 11.4091C345.383 11.6932 345.276 12.0175 345.272 12.3821C345.272 12.6851 345.34 12.9479 345.478 13.1705C345.62 13.393 345.811 13.5824 346.053 13.7386C346.294 13.8902 346.562 14.018 346.855 14.1222C347.149 14.2263 347.445 14.3139 347.743 14.3849L349.107 14.7259C349.656 14.8537 350.184 15.0265 350.691 15.2443C351.202 15.4621 351.659 15.7367 352.061 16.0682C352.469 16.3996 352.791 16.7997 353.027 17.2685C353.264 17.7372 353.382 18.2865 353.382 18.9162C353.382 19.7685 353.165 20.5189 352.729 21.1676C352.293 21.8116 351.664 22.3158 350.84 22.6804C350.021 23.0402 349.029 23.2202 347.864 23.2202C346.732 23.2202 345.75 23.045 344.917 22.6946C344.088 22.3442 343.439 21.8329 342.971 21.1605C342.507 20.4882 342.256 19.669 342.218 18.7031H344.81C344.848 19.2098 345.004 19.6312 345.279 19.9673C345.553 20.3035 345.911 20.5545 346.351 20.7202C346.796 20.8859 347.293 20.9688 347.843 20.9688C348.416 20.9688 348.917 20.8835 349.348 20.7131C349.784 20.5379 350.125 20.2964 350.371 19.9886C350.617 19.6761 350.743 19.3116 350.748 18.8949C350.743 18.5161 350.632 18.2036 350.414 17.9574C350.196 17.7064 349.891 17.4981 349.498 17.3324C349.109 17.1619 348.655 17.0104 348.134 16.8778L346.479 16.4517C345.281 16.1439 344.334 15.6776 343.638 15.0526C342.947 14.4228 342.601 13.5871 342.601 12.5455C342.601 11.6884 342.833 10.938 343.297 10.294C343.766 9.65009 344.403 9.15057 345.208 8.79545C346.013 8.43561 346.924 8.25568 347.942 8.25568C348.974 8.25568 349.879 8.43561 350.655 8.79545C351.436 9.15057 352.05 9.64536 352.495 10.2798C352.94 10.9096 353.169 11.634 353.184 12.4531H350.648ZM355.732 23V8.45455H361.186C362.304 8.45455 363.241 8.66288 363.999 9.07955C364.761 9.49621 365.336 10.0691 365.724 10.7983C366.117 11.5227 366.314 12.3466 366.314 13.2699C366.314 14.2027 366.117 15.0312 365.724 15.7557C365.331 16.4801 364.751 17.0507 363.984 17.4673C363.217 17.8793 362.273 18.0852 361.151 18.0852H357.536V15.919H360.795C361.449 15.919 361.984 15.8054 362.401 15.5781C362.817 15.3509 363.125 15.0384 363.324 14.6406C363.527 14.2429 363.629 13.786 363.629 13.2699C363.629 12.7538 363.527 12.2992 363.324 11.9062C363.125 11.5133 362.815 11.2079 362.393 10.9901C361.977 10.7675 361.439 10.6562 360.781 10.6562H358.366V23H355.732ZM368.603 23V8.45455H374.057C375.175 8.45455 376.112 8.64867 376.87 9.03693C377.632 9.42519 378.207 9.9697 378.596 10.6705C378.989 11.3665 379.185 12.1785 379.185 13.1065C379.185 14.0393 378.986 14.849 378.588 15.5355C378.195 16.2173 377.615 16.7453 376.848 17.1193C376.081 17.4886 375.139 17.6733 374.022 17.6733H370.137V15.4858H373.667C374.32 15.4858 374.855 15.3958 375.272 15.2159C375.688 15.0312 375.996 14.7637 376.195 14.4134C376.399 14.0582 376.5 13.6226 376.5 13.1065C376.5 12.5904 376.399 12.1501 376.195 11.7855C375.991 11.4162 375.681 11.1368 375.265 10.9474C374.848 10.7533 374.31 10.6562 373.652 10.6562H371.238V23H368.603ZM376.117 16.4091L379.718 23H376.777L373.24 16.4091H376.117ZM380.05 8.45455H383.026L386.584 14.8892H386.726L390.284 8.45455H393.26L387.969 17.5739V23H385.341V17.5739L380.05 8.45455Z" fill="black"/>
    </svg>
    