
<svg width="405" height="30" viewBox="0 0 405 30" fill="none" xmlns="http://www.w3.org/2000/svg">
    <rect y="14" width="405" height="7" fill="#D9D9D9"/>
    <rect x="40" width="30" height="30" fill="#BBD0FF"/>
    <rect x="40" width="30" height="30" fill="#BBD0FF"/>
    <path d="M45.0577 23.2856V8.74019H50.6259C51.677 8.74019 52.5506 8.90591 53.2466 9.23735C53.9474 9.56405 54.4706 10.0115 54.8162 10.5797C55.1666 11.1479 55.3418 11.7918 55.3418 12.5115C55.3418 13.1034 55.2282 13.61 55.0009 14.0314C54.7736 14.448 54.4682 14.7866 54.0847 15.047C53.7012 15.3074 53.2727 15.4945 52.7992 15.6081V15.7501C53.3153 15.7785 53.8101 15.9372 54.2836 16.226C54.7618 16.5101 55.1524 16.9125 55.4554 17.4334C55.7585 17.9542 55.91 18.5839 55.91 19.3226C55.91 20.0754 55.7277 20.7525 55.3631 21.3538C54.9985 21.9504 54.4493 22.4215 53.7154 22.7672C52.9815 23.1128 52.0582 23.2856 50.9455 23.2856H45.0577ZM47.6926 21.0839H50.5265C51.4829 21.0839 52.1718 20.9016 52.5932 20.5371C53.0194 20.1677 53.2324 19.6943 53.2324 19.1166C53.2324 18.6857 53.1259 18.2975 52.9128 17.9518C52.6998 17.6015 52.3967 17.3268 52.0037 17.128C51.6107 16.9244 51.142 16.8226 50.5975 16.8226H47.6926V21.0839ZM47.6926 14.9263H50.2992C50.7537 14.9263 51.1633 14.8434 51.5279 14.6777C51.8925 14.5072 52.1789 14.2681 52.3873 13.9604C52.6003 13.6479 52.7069 13.2785 52.7069 12.8524C52.7069 12.289 52.508 11.8249 52.1103 11.4604C51.7173 11.0958 51.1325 10.9135 50.356 10.9135H47.6926V14.9263ZM63.9764 8.74019V23.2856H61.3414V11.3041H61.2562L57.8542 13.4774V11.0626L61.4693 8.74019H63.9764Z" fill="black"/>
    <rect x="76" width="30" height="30" fill="#BBD0FF"/>
    <rect x="76" width="30" height="30" fill="#BBD0FF"/>
    <path d="M79.6515 23.2856V8.74019H85.2196C86.2708 8.74019 87.1444 8.90591 87.8404 9.23735C88.5411 9.56405 89.0643 10.0115 89.41 10.5797C89.7604 11.1479 89.9355 11.7918 89.9355 12.5115C89.9355 13.1034 89.8219 13.61 89.5946 14.0314C89.3674 14.448 89.062 14.7866 88.6784 15.047C88.2949 15.3074 87.8664 15.4945 87.3929 15.6081V15.7501C87.909 15.7785 88.4038 15.9372 88.8773 16.226C89.3555 16.5101 89.7462 16.9125 90.0492 17.4334C90.3522 17.9542 90.5037 18.5839 90.5037 19.3226C90.5037 20.0754 90.3214 20.7525 89.9569 21.3538C89.5923 21.9504 89.043 22.4215 88.3091 22.7672C87.5752 23.1128 86.6519 23.2856 85.5392 23.2856H79.6515ZM82.2864 21.0839H85.1202C86.0766 21.0839 86.7656 20.9016 87.187 20.5371C87.6131 20.1677 87.8262 19.6943 87.8262 19.1166C87.8262 18.6857 87.7196 18.2975 87.5066 17.9518C87.2935 17.6015 86.9905 17.3268 86.5975 17.128C86.2045 16.9244 85.7357 16.8226 85.1912 16.8226H82.2864V21.0839ZM82.2864 14.9263H84.8929C85.3475 14.9263 85.757 14.8434 86.1216 14.6777C86.4862 14.5072 86.7727 14.2681 86.981 13.9604C87.1941 13.6479 87.3006 13.2785 87.3006 12.8524C87.3006 12.289 87.1017 11.8249 86.704 11.4604C86.311 11.0958 85.7263 10.9135 84.9498 10.9135H82.2864V14.9263ZM92.6539 23.2856V21.3822L97.7037 16.432C98.1866 15.9443 98.5891 15.511 98.911 15.1322C99.233 14.7534 99.4745 14.3865 99.6355 14.0314C99.7965 13.6763 99.877 13.2975 99.877 12.895C99.877 12.4357 99.7728 12.0427 99.5645 11.716C99.3561 11.3846 99.0697 11.1289 98.7051 10.949C98.3405 10.7691 97.9262 10.6791 97.4622 10.6791C96.984 10.6791 96.5649 10.7785 96.2051 10.9774C95.8452 11.1715 95.5659 11.4485 95.367 11.8084C95.1729 12.1682 95.0758 12.5967 95.0758 13.0939H92.5687C92.5687 12.1706 92.7794 11.368 93.2008 10.6862C93.6222 10.0044 94.2022 9.47646 94.9409 9.10241C95.6842 8.72835 96.5365 8.54133 97.4977 8.54133C98.4731 8.54133 99.3301 8.72362 100.069 9.0882C100.807 9.45278 101.38 9.95231 101.787 10.5868C102.199 11.2212 102.405 11.9457 102.405 12.7601C102.405 13.3046 102.301 13.8396 102.093 14.3652C101.885 14.8908 101.518 15.4731 100.992 16.1123C100.471 16.7516 99.7396 17.5257 98.7974 18.4348L96.2903 20.9845V21.0839H102.626V23.2856H92.6539Z" fill="black"/>
    <rect x="112" width="30" height="30" fill="#BBD0FF"/>
    <rect x="112" width="30" height="30" fill="#BBD0FF"/>
    <path d="M126.022 13.6479H123.365C123.29 13.2123 123.15 12.8264 122.946 12.4902C122.743 12.1493 122.489 11.8605 122.186 11.6237C121.883 11.387 121.538 11.2094 121.15 11.091C120.766 10.9679 120.352 10.9064 119.907 10.9064C119.116 10.9064 118.415 11.1052 117.804 11.503C117.194 11.896 116.715 12.4736 116.37 13.2359C116.024 13.9935 115.851 14.9192 115.851 16.0129C115.851 17.1256 116.024 18.0631 116.37 18.8254C116.72 19.583 117.198 20.1559 117.804 20.5442C118.415 20.9277 119.114 21.1195 119.9 21.1195C120.335 21.1195 120.742 21.0626 121.121 20.949C121.505 20.8306 121.848 20.6578 122.151 20.4305C122.459 20.2033 122.717 19.9239 122.925 19.5925C123.138 19.261 123.285 18.8822 123.365 18.4561L126.022 18.4703C125.922 19.1616 125.707 19.8103 125.375 20.4163C125.049 21.0224 124.62 21.5574 124.09 22.0214C123.56 22.4807 122.939 22.8406 122.229 23.101C121.519 23.3567 120.73 23.4845 119.864 23.4845C118.586 23.4845 117.444 23.1886 116.441 22.5967C115.437 22.0049 114.646 21.1502 114.069 20.0328C113.491 18.9154 113.202 17.5754 113.202 16.0129C113.202 14.4457 113.493 13.1057 114.076 11.993C114.658 10.8756 115.451 10.021 116.455 9.42911C117.459 8.83725 118.595 8.54133 119.864 8.54133C120.674 8.54133 121.426 8.65496 122.123 8.88223C122.819 9.10951 123.439 9.44331 123.983 9.88366C124.528 10.3193 124.975 10.8543 125.326 11.4888C125.681 12.1185 125.913 12.8382 126.022 13.6479ZM140.885 13.6479H138.229C138.153 13.2123 138.013 12.8264 137.81 12.4902C137.606 12.1493 137.353 11.8605 137.05 11.6237C136.747 11.387 136.401 11.2094 136.013 11.091C135.629 10.9679 135.215 10.9064 134.77 10.9064C133.979 10.9064 133.278 11.1052 132.668 11.503C132.057 11.896 131.579 12.4736 131.233 13.2359C130.887 13.9935 130.714 14.9192 130.714 16.0129C130.714 17.1256 130.887 18.0631 131.233 18.8254C131.583 19.583 132.062 20.1559 132.668 20.5442C133.278 20.9277 133.977 21.1195 134.763 21.1195C135.198 21.1195 135.606 21.0626 135.984 20.949C136.368 20.8306 136.711 20.6578 137.014 20.4305C137.322 20.2033 137.58 19.9239 137.788 19.5925C138.001 19.261 138.148 18.8822 138.229 18.4561L140.885 18.4703C140.786 19.1616 140.57 19.8103 140.239 20.4163C139.912 21.0224 139.483 21.5574 138.953 22.0214C138.423 22.4807 137.803 22.8406 137.092 23.101C136.382 23.3567 135.594 23.4845 134.727 23.4845C133.449 23.4845 132.308 23.1886 131.304 22.5967C130.3 22.0049 129.509 21.1502 128.932 20.0328C128.354 18.9154 128.065 17.5754 128.065 16.0129C128.065 14.4457 128.357 13.1057 128.939 11.993C129.521 10.8756 130.314 10.021 131.318 9.42911C132.322 8.83725 133.458 8.54133 134.727 8.54133C135.537 8.54133 136.29 8.65496 136.986 8.88223C137.682 9.10951 138.302 9.44331 138.847 9.88366C139.391 10.3193 139.839 10.8543 140.189 11.4888C140.544 12.1185 140.776 12.8382 140.885 13.6479Z" fill="black"/>
    <ellipse cx="306.5" cy="15" rx="27.5" ry="15" fill="#8C07DD"/>
    <path d="M287.437 22.125V7.57955H292.891C294.009 7.57955 294.946 7.78788 295.704 8.20455C296.466 8.62121 297.041 9.19413 297.43 9.9233C297.823 10.6477 298.019 11.4716 298.019 12.3949C298.019 13.3277 297.823 14.1562 297.43 14.8807C297.037 15.6051 296.456 16.1757 295.689 16.5923C294.922 17.0043 293.978 17.2102 292.856 17.2102H289.241V15.044H292.501C293.154 15.044 293.689 14.9304 294.106 14.7031C294.522 14.4759 294.83 14.1634 295.029 13.7656C295.233 13.3679 295.334 12.911 295.334 12.3949C295.334 11.8788 295.233 11.4242 295.029 11.0312C294.83 10.6383 294.52 10.3329 294.099 10.1151C293.682 9.89252 293.144 9.78125 292.486 9.78125H290.072V22.125H287.437ZM300.308 22.125V7.57955H302.943V13.7372H309.683V7.57955H312.325V22.125H309.683V15.946H302.943V22.125H300.308ZM320.119 22.125H315.191V7.57955H320.219C321.663 7.57955 322.904 7.87074 323.941 8.45312C324.982 9.03078 325.782 9.86174 326.341 10.946C326.9 12.0303 327.179 13.3277 327.179 14.8381C327.179 16.3532 326.897 17.6553 326.334 18.7443C325.775 19.8333 324.968 20.669 323.912 21.2514C322.861 21.8338 321.597 22.125 320.119 22.125ZM317.825 19.8452H319.992C321.005 19.8452 321.85 19.6605 322.527 19.2912C323.204 18.9171 323.713 18.3608 324.054 17.6222C324.395 16.8788 324.566 15.9508 324.566 14.8381C324.566 13.7254 324.395 12.8021 324.054 12.0682C323.713 11.3295 323.209 10.7779 322.541 10.4134C321.878 10.044 321.055 9.85938 320.07 9.85938H317.825V19.8452Z" fill="black"/>
    <ellipse cx="369" cy="15" rx="30" ry="15" fill="#8C07DD"/>
    <path d="M344.165 21V10.8182H348.063C348.799 10.8182 349.41 10.9342 349.898 11.1662C350.388 11.3949 350.754 11.7081 350.996 12.1058C351.242 12.5036 351.364 12.9543 351.364 13.4581C351.364 13.8724 351.285 14.227 351.126 14.522C350.967 14.8137 350.753 15.0507 350.484 15.233C350.216 15.4152 349.916 15.5462 349.584 15.6257V15.7251C349.946 15.745 350.292 15.8561 350.623 16.0582C350.958 16.2571 351.232 16.5388 351.444 16.9034C351.656 17.268 351.762 17.7088 351.762 18.2259C351.762 18.7528 351.634 19.2268 351.379 19.6477C351.124 20.0653 350.739 20.3951 350.226 20.6371C349.712 20.879 349.066 21 348.287 21H344.165ZM346.01 19.4588H347.994C348.663 19.4588 349.145 19.3312 349.44 19.076C349.739 18.8175 349.888 18.486 349.888 18.0817C349.888 17.7801 349.813 17.5083 349.664 17.2663C349.515 17.0211 349.303 16.8288 349.028 16.6896C348.753 16.5471 348.424 16.4759 348.043 16.4759H346.01V19.4588ZM346.01 15.1484H347.834C348.153 15.1484 348.439 15.0904 348.695 14.9744C348.95 14.8551 349.15 14.6877 349.296 14.4723C349.445 14.2536 349.52 13.995 349.52 13.6967C349.52 13.3023 349.381 12.9775 349.102 12.7223C348.827 12.4671 348.418 12.3395 347.874 12.3395H346.01V15.1484ZM353.367 21V10.8182H357.185C357.967 10.8182 358.623 10.9541 359.153 11.2259C359.687 11.4976 360.09 11.8788 360.362 12.3693C360.637 12.8565 360.774 13.425 360.774 14.0746C360.774 14.7275 360.635 15.2943 360.357 15.7749C360.082 16.2521 359.676 16.6217 359.139 16.8835C358.602 17.142 357.942 17.2713 357.16 17.2713H354.44V15.7401H356.911C357.369 15.7401 357.743 15.6771 358.035 15.5511C358.327 15.4219 358.542 15.2346 358.681 14.9893C358.824 14.7408 358.895 14.4358 358.895 14.0746C358.895 13.7133 358.824 13.4051 358.681 13.1499C358.539 12.8913 358.322 12.6958 358.03 12.5632C357.738 12.4273 357.362 12.3594 356.901 12.3594H355.211V21H353.367ZM358.627 16.3864L361.147 21H359.089L356.613 16.3864H358.627ZM371.57 15.9091C371.57 17.0062 371.365 17.9458 370.954 18.728C370.546 19.5069 369.989 20.1035 369.283 20.5178C368.58 20.9321 367.783 21.1392 366.892 21.1392C366 21.1392 365.201 20.9321 364.495 20.5178C363.793 20.1001 363.236 19.5019 362.825 18.723C362.417 17.9408 362.214 17.0028 362.214 15.9091C362.214 14.812 362.417 13.8741 362.825 13.0952C363.236 12.313 363.793 11.7147 364.495 11.3004C365.201 10.8861 366 10.679 366.892 10.679C367.783 10.679 368.58 10.8861 369.283 11.3004C369.989 11.7147 370.546 12.313 370.954 13.0952C371.365 13.8741 371.57 14.812 371.57 15.9091ZM369.716 15.9091C369.716 15.1368 369.595 14.4856 369.353 13.9553C369.114 13.4216 368.783 13.0189 368.358 12.7472C367.934 12.4721 367.445 12.3345 366.892 12.3345C366.338 12.3345 365.849 12.4721 365.425 12.7472C365.001 13.0189 364.668 13.4216 364.426 13.9553C364.187 14.4856 364.068 15.1368 364.068 15.9091C364.068 16.6813 364.187 17.3343 364.426 17.8679C364.668 18.3982 365.001 18.8009 365.425 19.076C365.849 19.3478 366.338 19.4837 366.892 19.4837C367.445 19.4837 367.934 19.3478 368.358 19.076C368.783 18.8009 369.114 18.3982 369.353 17.8679C369.595 17.3343 369.716 16.6813 369.716 15.9091ZM373.314 10.8182H375.571L378.594 18.196H378.713L381.736 10.8182H383.993V21H382.223V14.005H382.128L379.315 20.9702H377.992L375.178 13.9901H375.084V21H373.314V10.8182ZM395.099 15.9091C395.099 17.0062 394.894 17.9458 394.483 18.728C394.075 19.5069 393.518 20.1035 392.812 20.5178C392.11 20.9321 391.313 21.1392 390.421 21.1392C389.53 21.1392 388.731 20.9321 388.025 20.5178C387.322 20.1001 386.765 19.5019 386.354 18.723C385.947 17.9408 385.743 17.0028 385.743 15.9091C385.743 14.812 385.947 13.8741 386.354 13.0952C386.765 12.313 387.322 11.7147 388.025 11.3004C388.731 10.8861 389.53 10.679 390.421 10.679C391.313 10.679 392.11 10.8861 392.812 11.3004C393.518 11.7147 394.075 12.313 394.483 13.0952C394.894 13.8741 395.099 14.812 395.099 15.9091ZM393.245 15.9091C393.245 15.1368 393.124 14.4856 392.882 13.9553C392.643 13.4216 392.312 13.0189 391.888 12.7472C391.463 12.4721 390.975 12.3345 390.421 12.3345C389.868 12.3345 389.379 12.4721 388.954 12.7472C388.53 13.0189 388.197 13.4216 387.955 13.9553C387.717 14.4856 387.597 15.1368 387.597 15.9091C387.597 16.6813 387.717 17.3343 387.955 17.8679C388.197 18.3982 388.53 18.8009 388.954 19.076C389.379 19.3478 389.868 19.4837 390.421 19.4837C390.975 19.4837 391.463 19.3478 391.888 19.076C392.312 18.8009 392.643 18.3982 392.882 17.8679C393.124 17.3343 393.245 16.6813 393.245 15.9091Z" fill="black"/>
    </svg>
    