
<svg width="405" height="30" viewBox="0 0 405 30" fill="none" xmlns="http://www.w3.org/2000/svg">
    <rect y="14" width="405" height="7" fill="#D9D9D9"/>
    <ellipse cx="368" cy="15" rx="30" ry="15" fill="#8C07DD"/>
    <path d="M350.648 12.4531C350.582 11.8329 350.302 11.3499 349.81 11.0043C349.322 10.6586 348.688 10.4858 347.907 10.4858C347.357 10.4858 346.886 10.5687 346.493 10.7344C346.1 10.9001 345.8 11.125 345.591 11.4091C345.383 11.6932 345.276 12.0175 345.272 12.3821C345.272 12.6851 345.34 12.9479 345.478 13.1705C345.62 13.393 345.811 13.5824 346.053 13.7386C346.294 13.8902 346.562 14.018 346.855 14.1222C347.149 14.2263 347.445 14.3139 347.743 14.3849L349.107 14.7259C349.656 14.8537 350.184 15.0265 350.691 15.2443C351.202 15.4621 351.659 15.7367 352.061 16.0682C352.469 16.3996 352.791 16.7997 353.027 17.2685C353.264 17.7372 353.382 18.2865 353.382 18.9162C353.382 19.7685 353.165 20.5189 352.729 21.1676C352.293 21.8116 351.664 22.3158 350.84 22.6804C350.021 23.0402 349.029 23.2202 347.864 23.2202C346.732 23.2202 345.75 23.045 344.917 22.6946C344.088 22.3442 343.439 21.8329 342.971 21.1605C342.507 20.4882 342.256 19.669 342.218 18.7031H344.81C344.848 19.2098 345.004 19.6312 345.279 19.9673C345.553 20.3035 345.911 20.5545 346.351 20.7202C346.796 20.8859 347.293 20.9688 347.843 20.9688C348.416 20.9688 348.917 20.8835 349.348 20.7131C349.784 20.5379 350.125 20.2964 350.371 19.9886C350.617 19.6761 350.743 19.3116 350.748 18.8949C350.743 18.5161 350.632 18.2036 350.414 17.9574C350.196 17.7064 349.891 17.4981 349.498 17.3324C349.109 17.1619 348.655 17.0104 348.134 16.8778L346.479 16.4517C345.281 16.1439 344.334 15.6776 343.638 15.0526C342.947 14.4228 342.601 13.5871 342.601 12.5455C342.601 11.6884 342.833 10.938 343.297 10.294C343.766 9.65009 344.403 9.15057 345.208 8.79545C346.013 8.43561 346.924 8.25568 347.942 8.25568C348.974 8.25568 349.879 8.43561 350.655 8.79545C351.436 9.15057 352.05 9.64536 352.495 10.2798C352.94 10.9096 353.169 11.634 353.184 12.4531H350.648ZM355.732 23V8.45455H361.186C362.304 8.45455 363.241 8.66288 363.999 9.07955C364.761 9.49621 365.336 10.0691 365.724 10.7983C366.117 11.5227 366.314 12.3466 366.314 13.2699C366.314 14.2027 366.117 15.0312 365.724 15.7557C365.331 16.4801 364.751 17.0507 363.984 17.4673C363.217 17.8793 362.273 18.0852 361.151 18.0852H357.536V15.919H360.795C361.449 15.919 361.984 15.8054 362.401 15.5781C362.817 15.3509 363.125 15.0384 363.324 14.6406C363.527 14.2429 363.629 13.786 363.629 13.2699C363.629 12.7538 363.527 12.2992 363.324 11.9062C363.125 11.5133 362.815 11.2079 362.393 10.9901C361.977 10.7675 361.439 10.6562 360.781 10.6562H358.366V23H355.732ZM368.603 23V8.45455H374.057C375.175 8.45455 376.112 8.64867 376.87 9.03693C377.632 9.42519 378.207 9.9697 378.596 10.6705C378.989 11.3665 379.185 12.1785 379.185 13.1065C379.185 14.0393 378.986 14.849 378.588 15.5355C378.195 16.2173 377.615 16.7453 376.848 17.1193C376.081 17.4886 375.139 17.6733 374.022 17.6733H370.137V15.4858H373.667C374.32 15.4858 374.855 15.3958 375.272 15.2159C375.688 15.0312 375.996 14.7637 376.195 14.4134C376.399 14.0582 376.5 13.6226 376.5 13.1065C376.5 12.5904 376.399 12.1501 376.195 11.7855C375.991 11.4162 375.681 11.1368 375.265 10.9474C374.848 10.7533 374.31 10.6562 373.652 10.6562H371.238V23H368.603ZM376.117 16.4091L379.718 23H376.777L373.24 16.4091H376.117ZM380.05 8.45455H383.026L386.584 14.8892H386.726L390.284 8.45455H393.26L387.969 17.5739V23H385.341V17.5739L380.05 8.45455Z" fill="black"/>
    <rect x="112" width="30" height="30" fill="#BBD0FF"/>
    <rect x="112" width="30" height="30" fill="#BBD0FF"/>
    <path d="M126.022 13.6479H123.365C123.29 13.2123 123.15 12.8264 122.946 12.4902C122.743 12.1493 122.489 11.8605 122.186 11.6237C121.883 11.387 121.538 11.2094 121.15 11.091C120.766 10.9679 120.352 10.9064 119.907 10.9064C119.116 10.9064 118.415 11.1052 117.804 11.503C117.194 11.896 116.715 12.4736 116.37 13.2359C116.024 13.9935 115.851 14.9192 115.851 16.0129C115.851 17.1256 116.024 18.0631 116.37 18.8254C116.72 19.583 117.198 20.1559 117.804 20.5442C118.415 20.9277 119.114 21.1195 119.9 21.1195C120.335 21.1195 120.742 21.0626 121.121 20.949C121.505 20.8306 121.848 20.6578 122.151 20.4305C122.459 20.2033 122.717 19.9239 122.925 19.5925C123.138 19.261 123.285 18.8822 123.365 18.4561L126.022 18.4703C125.922 19.1616 125.707 19.8103 125.375 20.4163C125.049 21.0224 124.62 21.5574 124.09 22.0214C123.56 22.4807 122.939 22.8406 122.229 23.101C121.519 23.3567 120.73 23.4845 119.864 23.4845C118.586 23.4845 117.444 23.1886 116.441 22.5967C115.437 22.0049 114.646 21.1502 114.069 20.0328C113.491 18.9154 113.202 17.5754 113.202 16.0129C113.202 14.4457 113.493 13.1057 114.076 11.993C114.658 10.8756 115.451 10.021 116.455 9.42911C117.459 8.83725 118.595 8.54133 119.864 8.54133C120.674 8.54133 121.426 8.65496 122.123 8.88223C122.819 9.10951 123.439 9.44331 123.983 9.88366C124.528 10.3193 124.975 10.8543 125.326 11.4888C125.681 12.1185 125.913 12.8382 126.022 13.6479ZM140.885 13.6479H138.229C138.153 13.2123 138.013 12.8264 137.81 12.4902C137.606 12.1493 137.353 11.8605 137.05 11.6237C136.747 11.387 136.401 11.2094 136.013 11.091C135.629 10.9679 135.215 10.9064 134.77 10.9064C133.979 10.9064 133.278 11.1052 132.668 11.503C132.057 11.896 131.579 12.4736 131.233 13.2359C130.887 13.9935 130.714 14.9192 130.714 16.0129C130.714 17.1256 130.887 18.0631 131.233 18.8254C131.583 19.583 132.062 20.1559 132.668 20.5442C133.278 20.9277 133.977 21.1195 134.763 21.1195C135.198 21.1195 135.606 21.0626 135.984 20.949C136.368 20.8306 136.711 20.6578 137.014 20.4305C137.322 20.2033 137.58 19.9239 137.788 19.5925C138.001 19.261 138.148 18.8822 138.229 18.4561L140.885 18.4703C140.786 19.1616 140.57 19.8103 140.239 20.4163C139.912 21.0224 139.483 21.5574 138.953 22.0214C138.423 22.4807 137.803 22.8406 137.092 23.101C136.382 23.3567 135.594 23.4845 134.727 23.4845C133.449 23.4845 132.308 23.1886 131.304 22.5967C130.3 22.0049 129.509 21.1502 128.932 20.0328C128.354 18.9154 128.065 17.5754 128.065 16.0129C128.065 14.4457 128.357 13.1057 128.939 11.993C129.521 10.8756 130.314 10.021 131.318 9.42911C132.322 8.83725 133.458 8.54133 134.727 8.54133C135.537 8.54133 136.29 8.65496 136.986 8.88223C137.682 9.10951 138.302 9.44331 138.847 9.88366C139.391 10.3193 139.839 10.8543 140.189 11.4888C140.544 12.1185 140.776 12.8382 140.885 13.6479Z" fill="black"/>
    </svg>
    