
<svg width="405" height="30" viewBox="0 0 405 30" fill="none" xmlns="http://www.w3.org/2000/svg">
    <rect y="14" width="405" height="7" fill="#D9D9D9"/>
    <rect x="4" width="30" height="30" fill="#BBD0FF"/>
    <rect x="4" width="30" height="30" fill="#BBD0FF"/>
    <path d="M13.9308 22.5715V8.02608H19.3853C20.5027 8.02608 21.4402 8.22021 22.1978 8.60846C22.9601 8.99672 23.5354 9.54123 23.9237 10.242C24.3166 10.938 24.5131 11.75 24.5131 12.6781C24.5131 13.6108 24.3143 14.4205 23.9165 15.107C23.5236 15.7889 22.9435 16.3168 22.1765 16.6909C21.4094 17.0602 20.4672 17.2448 19.3498 17.2448H15.4648V15.0573H18.9947C19.6481 15.0573 20.1831 14.9674 20.5998 14.7874C21.0165 14.6028 21.3242 14.3353 21.5231 13.9849C21.7267 13.6298 21.8285 13.1942 21.8285 12.6781C21.8285 12.162 21.7267 11.7216 21.5231 11.357C21.3195 10.9877 21.0094 10.7084 20.5927 10.519C20.176 10.3248 19.6386 10.2278 18.9805 10.2278H16.5657V22.5715H13.9308ZM21.445 15.9806L25.0458 22.5715H22.1055L18.5685 15.9806H21.445Z" fill="black"/>
    <ellipse cx="188.5" cy="15" rx="27.5" ry="15" fill="#8C07DD"/>
    <path d="M179.929 12.6479H177.273C177.197 12.2123 177.058 11.8264 176.854 11.4902C176.65 11.1493 176.397 10.8605 176.094 10.6237C175.791 10.387 175.445 10.2094 175.057 10.091C174.674 9.96794 174.259 9.90638 173.814 9.90638C173.024 9.90638 172.323 10.1052 171.712 10.503C171.101 10.896 170.623 11.4736 170.277 12.2359C169.932 12.9935 169.759 13.9192 169.759 15.0129C169.759 16.1256 169.932 17.0631 170.277 17.8254C170.628 18.583 171.106 19.1559 171.712 19.5442C172.323 19.9277 173.021 20.1195 173.807 20.1195C174.243 20.1195 174.65 20.0626 175.029 19.949C175.412 19.8306 175.756 19.6578 176.059 19.4305C176.366 19.2033 176.624 18.9239 176.833 18.5925C177.046 18.261 177.193 17.8822 177.273 17.4561L179.929 17.4703C179.83 18.1616 179.614 18.8103 179.283 19.4163C178.956 20.0224 178.528 20.5574 177.997 21.0214C177.467 21.4807 176.847 21.8406 176.137 22.101C175.426 22.3567 174.638 22.4845 173.772 22.4845C172.493 22.4845 171.352 22.1886 170.348 21.5967C169.345 21.0049 168.554 20.1502 167.976 19.0328C167.399 17.9154 167.11 16.5754 167.11 15.0129C167.11 13.4457 167.401 12.1057 167.983 10.993C168.566 9.87561 169.359 9.02097 170.363 8.42911C171.366 7.83725 172.503 7.54133 173.772 7.54133C174.581 7.54133 175.334 7.65496 176.03 7.88223C176.726 8.10951 177.346 8.44331 177.891 8.88366C178.435 9.31926 178.883 9.8543 179.233 10.4888C179.588 11.1185 179.82 11.8382 179.929 12.6479ZM195.339 15.0129C195.339 16.5802 195.046 17.9225 194.459 19.0399C193.876 20.1526 193.081 21.0049 192.072 21.5967C191.069 22.1886 189.93 22.4845 188.656 22.4845C187.383 22.4845 186.241 22.1886 185.233 21.5967C184.229 21.0001 183.434 20.1455 182.847 19.0328C182.264 17.9154 181.973 16.5754 181.973 15.0129C181.973 13.4457 182.264 12.1057 182.847 10.993C183.434 9.87561 184.229 9.02097 185.233 8.42911C186.241 7.83725 187.383 7.54133 188.656 7.54133C189.93 7.54133 191.069 7.83725 192.072 8.42911C193.081 9.02097 193.876 9.87561 194.459 10.993C195.046 12.1057 195.339 13.4457 195.339 15.0129ZM192.69 15.0129C192.69 13.9097 192.517 12.9793 192.172 12.2217C191.831 11.4594 191.357 10.8841 190.751 10.4959C190.145 10.1029 189.447 9.90638 188.656 9.90638C187.866 9.90638 187.167 10.1029 186.561 10.4959C185.955 10.8841 185.479 11.4594 185.133 12.2217C184.793 12.9793 184.622 13.9097 184.622 15.0129C184.622 16.1161 184.793 17.0489 185.133 17.8112C185.479 18.5688 185.955 19.1441 186.561 19.5371C187.167 19.9253 187.866 20.1195 188.656 20.1195C189.447 20.1195 190.145 19.9253 190.751 19.5371C191.357 19.1441 191.831 18.5688 192.172 17.8112C192.517 17.0489 192.69 16.1161 192.69 15.0129ZM205.735 11.7388C205.669 11.1185 205.39 10.6355 204.897 10.2899C204.41 9.94426 203.775 9.77144 202.994 9.77144C202.445 9.77144 201.974 9.8543 201.581 10.02C201.188 10.1857 200.887 10.4106 200.679 10.6947C200.47 10.9788 200.364 11.3032 200.359 11.6677C200.359 11.9708 200.428 12.2336 200.565 12.4561C200.707 12.6786 200.899 12.868 201.14 13.0243C201.382 13.1758 201.649 13.3036 201.943 13.4078C202.236 13.512 202.532 13.5996 202.831 13.6706L204.194 14.0115C204.743 14.1393 205.271 14.3122 205.778 14.53C206.289 14.7478 206.746 15.0224 207.149 15.3538C207.556 15.6853 207.878 16.0854 208.115 16.5541C208.351 17.0229 208.47 17.5721 208.47 18.2018C208.47 19.0541 208.252 19.8046 207.816 20.4533C207.381 21.0972 206.751 21.6015 205.927 21.966C205.108 22.3259 204.116 22.5058 202.951 22.5058C201.82 22.5058 200.837 22.3306 200.004 21.9802C199.175 21.6299 198.527 21.1185 198.058 20.4462C197.594 19.7738 197.343 18.9547 197.305 17.9888H199.897C199.935 18.4954 200.091 18.9168 200.366 19.253C200.641 19.5891 200.998 19.8401 201.439 20.0058C201.884 20.1715 202.381 20.2544 202.93 20.2544C203.503 20.2544 204.005 20.1692 204.436 19.9987C204.871 19.8235 205.212 19.582 205.458 19.2743C205.705 18.9618 205.83 18.5972 205.835 18.1805C205.83 17.8017 205.719 17.4892 205.501 17.243C205.283 16.9921 204.978 16.7838 204.585 16.618C204.197 16.4476 203.742 16.2961 203.221 16.1635L201.566 15.7373C200.368 15.4296 199.421 14.9632 198.725 14.3382C198.034 13.7085 197.689 12.8728 197.689 11.8311C197.689 10.9741 197.921 10.2236 198.385 9.57968C198.853 8.93574 199.49 8.43621 200.295 8.0811C201.1 7.72125 202.011 7.54133 203.029 7.54133C204.062 7.54133 204.966 7.72125 205.743 8.0811C206.524 8.43621 207.137 8.931 207.582 9.56547C208.027 10.1952 208.257 10.9196 208.271 11.7388H205.735Z" fill="black"/>
    <ellipse cx="251" cy="15" rx="30" ry="15" fill="#8C07DD"/>
    <path d="M229.486 23H226.674L231.794 8.45455H235.047L240.175 23H237.363L233.478 11.4375H233.364L229.486 23ZM229.578 17.2969H237.249V19.4134H229.578V17.2969ZM253.858 13.3622H251.201C251.126 12.9266 250.986 12.5407 250.782 12.2045C250.579 11.8636 250.325 11.5748 250.022 11.3381C249.719 11.1013 249.374 10.9238 248.985 10.8054C248.602 10.6823 248.188 10.6207 247.743 10.6207C246.952 10.6207 246.251 10.8196 245.64 11.2173C245.029 11.6103 244.551 12.188 244.206 12.9503C243.86 13.7079 243.687 14.6335 243.687 15.7273C243.687 16.84 243.86 17.7775 244.206 18.5398C244.556 19.2973 245.034 19.8703 245.64 20.2585C246.251 20.642 246.949 20.8338 247.735 20.8338C248.171 20.8338 248.578 20.777 248.957 20.6634C249.341 20.545 249.684 20.3722 249.987 20.1449C250.295 19.9176 250.553 19.6383 250.761 19.3068C250.974 18.9754 251.121 18.5966 251.201 18.1705L253.858 18.1847C253.758 18.8759 253.543 19.5246 253.211 20.1307C252.885 20.7367 252.456 21.2718 251.926 21.7358C251.395 22.1951 250.775 22.5549 250.065 22.8153C249.355 23.071 248.566 23.1989 247.7 23.1989C246.422 23.1989 245.28 22.9029 244.277 22.3111C243.273 21.7192 242.482 20.8646 241.904 19.7472C241.327 18.6297 241.038 17.2898 241.038 15.7273C241.038 14.16 241.329 12.8201 241.912 11.7074C242.494 10.59 243.287 9.73532 244.291 9.14347C245.295 8.55161 246.431 8.25568 247.7 8.25568C248.51 8.25568 249.262 8.36932 249.958 8.59659C250.654 8.82386 251.275 9.15767 251.819 9.59801C252.364 10.0336 252.811 10.5687 253.162 11.2031C253.517 11.8329 253.749 12.5526 253.858 13.3622ZM258.906 8.45455V23H256.271V8.45455H258.906ZM266.688 23H261.759V8.45455H266.787C268.231 8.45455 269.472 8.74574 270.509 9.32812C271.551 9.90578 272.351 10.7367 272.909 11.821C273.468 12.9053 273.748 14.2027 273.748 15.7131C273.748 17.2282 273.466 18.5303 272.902 19.6193C272.344 20.7083 271.536 21.544 270.48 22.1264C269.429 22.7088 268.165 23 266.688 23ZM264.394 20.7202H266.56C267.573 20.7202 268.418 20.5355 269.096 20.1662C269.773 19.7921 270.282 19.2358 270.623 18.4972C270.963 17.7538 271.134 16.8258 271.134 15.7131C271.134 14.6004 270.963 13.6771 270.623 12.9432C270.282 12.2045 269.777 11.6529 269.11 11.2884C268.447 10.919 267.623 10.7344 266.638 10.7344H264.394V20.7202Z" fill="black"/>
    <rect x="76" width="30" height="30" fill="#BBD0FF"/>
    <rect x="76" width="30" height="30" fill="#BBD0FF"/>
    <path d="M79.6515 23.2856V8.74019H85.2196C86.2708 8.74019 87.1444 8.90591 87.8404 9.23735C88.5411 9.56405 89.0643 10.0115 89.41 10.5797C89.7604 11.1479 89.9355 11.7918 89.9355 12.5115C89.9355 13.1034 89.8219 13.61 89.5946 14.0314C89.3674 14.448 89.062 14.7866 88.6784 15.047C88.2949 15.3074 87.8664 15.4945 87.3929 15.6081V15.7501C87.909 15.7785 88.4038 15.9372 88.8773 16.226C89.3555 16.5101 89.7462 16.9125 90.0492 17.4334C90.3522 17.9542 90.5037 18.5839 90.5037 19.3226C90.5037 20.0754 90.3214 20.7525 89.9569 21.3538C89.5923 21.9504 89.043 22.4215 88.3091 22.7672C87.5752 23.1128 86.6519 23.2856 85.5392 23.2856H79.6515ZM82.2864 21.0839H85.1202C86.0766 21.0839 86.7656 20.9016 87.187 20.5371C87.6131 20.1677 87.8262 19.6943 87.8262 19.1166C87.8262 18.6857 87.7196 18.2975 87.5066 17.9518C87.2935 17.6015 86.9905 17.3268 86.5975 17.128C86.2045 16.9244 85.7357 16.8226 85.1912 16.8226H82.2864V21.0839ZM82.2864 14.9263H84.8929C85.3475 14.9263 85.757 14.8434 86.1216 14.6777C86.4862 14.5072 86.7727 14.2681 86.981 13.9604C87.1941 13.6479 87.3006 13.2785 87.3006 12.8524C87.3006 12.289 87.1017 11.8249 86.704 11.4604C86.311 11.0958 85.7263 10.9135 84.9498 10.9135H82.2864V14.9263ZM92.6539 23.2856V21.3822L97.7037 16.432C98.1866 15.9443 98.5891 15.511 98.911 15.1322C99.233 14.7534 99.4745 14.3865 99.6355 14.0314C99.7965 13.6763 99.877 13.2975 99.877 12.895C99.877 12.4357 99.7728 12.0427 99.5645 11.716C99.3561 11.3846 99.0697 11.1289 98.7051 10.949C98.3405 10.7691 97.9262 10.6791 97.4622 10.6791C96.984 10.6791 96.5649 10.7785 96.2051 10.9774C95.8452 11.1715 95.5659 11.4485 95.367 11.8084C95.1729 12.1682 95.0758 12.5967 95.0758 13.0939H92.5687C92.5687 12.1706 92.7794 11.368 93.2008 10.6862C93.6222 10.0044 94.2022 9.47646 94.9409 9.10241C95.6842 8.72835 96.5365 8.54133 97.4977 8.54133C98.4731 8.54133 99.3301 8.72362 100.069 9.0882C100.807 9.45278 101.38 9.95231 101.787 10.5868C102.199 11.2212 102.405 11.9457 102.405 12.7601C102.405 13.3046 102.301 13.8396 102.093 14.3652C101.885 14.8908 101.518 15.4731 100.992 16.1123C100.471 16.7516 99.7396 17.5257 98.7974 18.4348L96.2903 20.9845V21.0839H102.626V23.2856H92.6539Z" fill="black"/>
    <rect x="112" width="30" height="30" fill="#BBD0FF"/>
    <rect x="112" width="30" height="30" fill="#BBD0FF"/>
    <path d="M126.022 13.6479H123.365C123.29 13.2123 123.15 12.8264 122.946 12.4902C122.743 12.1493 122.489 11.8605 122.186 11.6237C121.883 11.387 121.538 11.2094 121.15 11.091C120.766 10.9679 120.352 10.9064 119.907 10.9064C119.116 10.9064 118.415 11.1052 117.804 11.503C117.194 11.896 116.715 12.4736 116.37 13.2359C116.024 13.9935 115.851 14.9192 115.851 16.0129C115.851 17.1256 116.024 18.0631 116.37 18.8254C116.72 19.583 117.198 20.1559 117.804 20.5442C118.415 20.9277 119.114 21.1195 119.9 21.1195C120.335 21.1195 120.742 21.0626 121.121 20.949C121.505 20.8306 121.848 20.6578 122.151 20.4305C122.459 20.2033 122.717 19.9239 122.925 19.5925C123.138 19.261 123.285 18.8822 123.365 18.4561L126.022 18.4703C125.922 19.1616 125.707 19.8103 125.375 20.4163C125.049 21.0224 124.62 21.5574 124.09 22.0214C123.56 22.4807 122.939 22.8406 122.229 23.101C121.519 23.3567 120.73 23.4845 119.864 23.4845C118.586 23.4845 117.444 23.1886 116.441 22.5967C115.437 22.0049 114.646 21.1502 114.069 20.0328C113.491 18.9154 113.202 17.5754 113.202 16.0129C113.202 14.4457 113.493 13.1057 114.076 11.993C114.658 10.8756 115.451 10.021 116.455 9.42911C117.459 8.83725 118.595 8.54133 119.864 8.54133C120.674 8.54133 121.426 8.65496 122.123 8.88223C122.819 9.10951 123.439 9.44331 123.983 9.88366C124.528 10.3193 124.975 10.8543 125.326 11.4888C125.681 12.1185 125.913 12.8382 126.022 13.6479ZM140.885 13.6479H138.229C138.153 13.2123 138.013 12.8264 137.81 12.4902C137.606 12.1493 137.353 11.8605 137.05 11.6237C136.747 11.387 136.401 11.2094 136.013 11.091C135.629 10.9679 135.215 10.9064 134.77 10.9064C133.979 10.9064 133.278 11.1052 132.668 11.503C132.057 11.896 131.579 12.4736 131.233 13.2359C130.887 13.9935 130.714 14.9192 130.714 16.0129C130.714 17.1256 130.887 18.0631 131.233 18.8254C131.583 19.583 132.062 20.1559 132.668 20.5442C133.278 20.9277 133.977 21.1195 134.763 21.1195C135.198 21.1195 135.606 21.0626 135.984 20.949C136.368 20.8306 136.711 20.6578 137.014 20.4305C137.322 20.2033 137.58 19.9239 137.788 19.5925C138.001 19.261 138.148 18.8822 138.229 18.4561L140.885 18.4703C140.786 19.1616 140.57 19.8103 140.239 20.4163C139.912 21.0224 139.483 21.5574 138.953 22.0214C138.423 22.4807 137.803 22.8406 137.092 23.101C136.382 23.3567 135.594 23.4845 134.727 23.4845C133.449 23.4845 132.308 23.1886 131.304 22.5967C130.3 22.0049 129.509 21.1502 128.932 20.0328C128.354 18.9154 128.065 17.5754 128.065 16.0129C128.065 14.4457 128.357 13.1057 128.939 11.993C129.521 10.8756 130.314 10.021 131.318 9.42911C132.322 8.83725 133.458 8.54133 134.727 8.54133C135.537 8.54133 136.29 8.65496 136.986 8.88223C137.682 9.10951 138.302 9.44331 138.847 9.88366C139.391 10.3193 139.839 10.8543 140.189 11.4888C140.544 12.1185 140.776 12.8382 140.885 13.6479Z" fill="black"/>
    </svg>
    