
<svg width="405" height="30" viewBox="0 0 405 30" fill="none" xmlns="http://www.w3.org/2000/svg">
    <rect y="14" width="405" height="7" fill="#D9D9D9"/>
    <rect x="4" width="30" height="30" fill="#BBD0FF"/>
    <rect x="4" width="30" height="30" fill="#BBD0FF"/>
    <path d="M13.9308 22.5715V8.02608H19.3853C20.5027 8.02608 21.4402 8.22021 22.1978 8.60846C22.9601 8.99672 23.5354 9.54123 23.9237 10.242C24.3166 10.938 24.5131 11.75 24.5131 12.6781C24.5131 13.6108 24.3143 14.4205 23.9165 15.107C23.5236 15.7889 22.9435 16.3168 22.1765 16.6909C21.4094 17.0602 20.4672 17.2448 19.3498 17.2448H15.4648V15.0573H18.9947C19.6481 15.0573 20.1831 14.9674 20.5998 14.7874C21.0165 14.6028 21.3242 14.3353 21.5231 13.9849C21.7267 13.6298 21.8285 13.1942 21.8285 12.6781C21.8285 12.162 21.7267 11.7216 21.5231 11.357C21.3195 10.9877 21.0094 10.7084 20.5927 10.519C20.176 10.3248 19.6386 10.2278 18.9805 10.2278H16.5657V22.5715H13.9308ZM21.445 15.9806L25.0458 22.5715H22.1055L18.5685 15.9806H21.445Z" fill="black"/>
    <ellipse cx="371.5" cy="15" rx="27.5" ry="15" fill="#8C07DD"/>
    <path d="M365.37 7.45455V22H363.026L356.173 12.0923H356.052V22H353.417V7.45455H355.775L362.622 17.3693H362.749V7.45455H365.37ZM368.241 22V7.45455H370.876V13.6122H377.616V7.45455H380.258V22H377.616V15.821H370.876V22H368.241ZM383.124 22V7.45455H385.759V19.7912H392.165V22H383.124Z" fill="black"/>
    <rect x="76" width="30" height="30" fill="#BBD0FF"/>
    <rect x="76" width="30" height="30" fill="#BBD0FF"/>
    <path d="M79.6515 23.2856V8.74019H85.2196C86.2708 8.74019 87.1444 8.90591 87.8404 9.23735C88.5411 9.56405 89.0643 10.0115 89.41 10.5797C89.7604 11.1479 89.9355 11.7918 89.9355 12.5115C89.9355 13.1034 89.8219 13.61 89.5946 14.0314C89.3674 14.448 89.062 14.7866 88.6784 15.047C88.2949 15.3074 87.8664 15.4945 87.3929 15.6081V15.7501C87.909 15.7785 88.4038 15.9372 88.8773 16.226C89.3555 16.5101 89.7462 16.9125 90.0492 17.4334C90.3522 17.9542 90.5037 18.5839 90.5037 19.3226C90.5037 20.0754 90.3214 20.7525 89.9569 21.3538C89.5923 21.9504 89.043 22.4215 88.3091 22.7672C87.5752 23.1128 86.6519 23.2856 85.5392 23.2856H79.6515ZM82.2864 21.0839H85.1202C86.0766 21.0839 86.7656 20.9016 87.187 20.5371C87.6131 20.1677 87.8262 19.6943 87.8262 19.1166C87.8262 18.6857 87.7196 18.2975 87.5066 17.9518C87.2935 17.6015 86.9905 17.3268 86.5975 17.128C86.2045 16.9244 85.7357 16.8226 85.1912 16.8226H82.2864V21.0839ZM82.2864 14.9263H84.8929C85.3475 14.9263 85.757 14.8434 86.1216 14.6777C86.4862 14.5072 86.7727 14.2681 86.981 13.9604C87.1941 13.6479 87.3006 13.2785 87.3006 12.8524C87.3006 12.289 87.1017 11.8249 86.704 11.4604C86.311 11.0958 85.7263 10.9135 84.9498 10.9135H82.2864V14.9263ZM92.6539 23.2856V21.3822L97.7037 16.432C98.1866 15.9443 98.5891 15.511 98.911 15.1322C99.233 14.7534 99.4745 14.3865 99.6355 14.0314C99.7965 13.6763 99.877 13.2975 99.877 12.895C99.877 12.4357 99.7728 12.0427 99.5645 11.716C99.3561 11.3846 99.0697 11.1289 98.7051 10.949C98.3405 10.7691 97.9262 10.6791 97.4622 10.6791C96.984 10.6791 96.5649 10.7785 96.2051 10.9774C95.8452 11.1715 95.5659 11.4485 95.367 11.8084C95.1729 12.1682 95.0758 12.5967 95.0758 13.0939H92.5687C92.5687 12.1706 92.7794 11.368 93.2008 10.6862C93.6222 10.0044 94.2022 9.47646 94.9409 9.10241C95.6842 8.72835 96.5365 8.54133 97.4977 8.54133C98.4731 8.54133 99.3301 8.72362 100.069 9.0882C100.807 9.45278 101.38 9.95231 101.787 10.5868C102.199 11.2212 102.405 11.9457 102.405 12.7601C102.405 13.3046 102.301 13.8396 102.093 14.3652C101.885 14.8908 101.518 15.4731 100.992 16.1123C100.471 16.7516 99.7396 17.5257 98.7974 18.4348L96.2903 20.9845V21.0839H102.626V23.2856H92.6539Z" fill="black"/>
    <rect x="112" width="30" height="30" fill="#BBD0FF"/>
    <rect x="112" width="30" height="30" fill="#BBD0FF"/>
    <path d="M126.022 13.6479H123.365C123.29 13.2123 123.15 12.8264 122.946 12.4902C122.743 12.1493 122.489 11.8605 122.186 11.6237C121.883 11.387 121.538 11.2094 121.15 11.091C120.766 10.9679 120.352 10.9064 119.907 10.9064C119.116 10.9064 118.415 11.1052 117.804 11.503C117.194 11.896 116.715 12.4736 116.37 13.2359C116.024 13.9935 115.851 14.9192 115.851 16.0129C115.851 17.1256 116.024 18.0631 116.37 18.8254C116.72 19.583 117.198 20.1559 117.804 20.5442C118.415 20.9277 119.114 21.1195 119.9 21.1195C120.335 21.1195 120.742 21.0626 121.121 20.949C121.505 20.8306 121.848 20.6578 122.151 20.4305C122.459 20.2033 122.717 19.9239 122.925 19.5925C123.138 19.261 123.285 18.8822 123.365 18.4561L126.022 18.4703C125.922 19.1616 125.707 19.8103 125.375 20.4163C125.049 21.0224 124.62 21.5574 124.09 22.0214C123.56 22.4807 122.939 22.8406 122.229 23.101C121.519 23.3567 120.73 23.4845 119.864 23.4845C118.586 23.4845 117.444 23.1886 116.441 22.5967C115.437 22.0049 114.646 21.1502 114.069 20.0328C113.491 18.9154 113.202 17.5754 113.202 16.0129C113.202 14.4457 113.493 13.1057 114.076 11.993C114.658 10.8756 115.451 10.021 116.455 9.42911C117.459 8.83725 118.595 8.54133 119.864 8.54133C120.674 8.54133 121.426 8.65496 122.123 8.88223C122.819 9.10951 123.439 9.44331 123.983 9.88366C124.528 10.3193 124.975 10.8543 125.326 11.4888C125.681 12.1185 125.913 12.8382 126.022 13.6479ZM140.885 13.6479H138.229C138.153 13.2123 138.013 12.8264 137.81 12.4902C137.606 12.1493 137.353 11.8605 137.05 11.6237C136.747 11.387 136.401 11.2094 136.013 11.091C135.629 10.9679 135.215 10.9064 134.77 10.9064C133.979 10.9064 133.278 11.1052 132.668 11.503C132.057 11.896 131.579 12.4736 131.233 13.2359C130.887 13.9935 130.714 14.9192 130.714 16.0129C130.714 17.1256 130.887 18.0631 131.233 18.8254C131.583 19.583 132.062 20.1559 132.668 20.5442C133.278 20.9277 133.977 21.1195 134.763 21.1195C135.198 21.1195 135.606 21.0626 135.984 20.949C136.368 20.8306 136.711 20.6578 137.014 20.4305C137.322 20.2033 137.58 19.9239 137.788 19.5925C138.001 19.261 138.148 18.8822 138.229 18.4561L140.885 18.4703C140.786 19.1616 140.57 19.8103 140.239 20.4163C139.912 21.0224 139.483 21.5574 138.953 22.0214C138.423 22.4807 137.803 22.8406 137.092 23.101C136.382 23.3567 135.594 23.4845 134.727 23.4845C133.449 23.4845 132.308 23.1886 131.304 22.5967C130.3 22.0049 129.509 21.1502 128.932 20.0328C128.354 18.9154 128.065 17.5754 128.065 16.0129C128.065 14.4457 128.357 13.1057 128.939 11.993C129.521 10.8756 130.314 10.021 131.318 9.42911C132.322 8.83725 133.458 8.54133 134.727 8.54133C135.537 8.54133 136.29 8.65496 136.986 8.88223C137.682 9.10951 138.302 9.44331 138.847 9.88366C139.391 10.3193 139.839 10.8543 140.189 11.4888C140.544 12.1185 140.776 12.8382 140.885 13.6479Z" fill="black"/>
    </svg>
    